<?xml version="1.0" encoding="UTF-8" standalone="no"?><svg xmlns="http://www.w3.org/2000/svg" xmlns:xlink="http://www.w3.org/1999/xlink" contentScriptType="application/ecmascript" contentStyleType="text/css" height="626px" preserveAspectRatio="none" style="width:225px;height:626px;background:#FFFFFF;" version="1.1" viewBox="0 0 225 626" width="225px" zoomAndPan="magnify"><defs/><g><text fill="#000000" font-family="Lato" font-size="16" lengthAdjust="spacing" textLength="191" x="10.5" y="15.7833">FWU Firmware Store states</text><text fill="#000000" font-family="Lato" font-size="16" lengthAdjust="spacing" textLength="0" x="107.5" y="34.9728"/><text fill="#000000" font-family="Lato" font-size="16" font-style="italic" lengthAdjust="spacing" textLength="125" x="43.5" y="54.1622">Reboot required: no</text><text fill="#000000" font-family="Lato" font-size="16" font-style="italic" lengthAdjust="spacing" textLength="130" x="41" y="73.3517">Testing required: yes</text><text fill="#000000" font-family="Lato" font-size="16" lengthAdjust="spacing" textLength="0" x="107.5" y="92.5411"/><rect fill="#FFFFFF" height="40" rx="12.5" ry="12.5" style="stroke:#000000;stroke-width:1.5;" width="50" x="110" y="102.9473"/><text fill="#000000" font-family="Lato" font-size="12" lengthAdjust="spacing" textLength="40" x="115" y="127.5887">READY</text><rect fill="#FFFFFF" height="40" rx="12.5" ry="12.5" style="stroke:#000000;stroke-width:1.5;" width="63" x="19.5" y="218.9473"/><text fill="#000000" font-family="Lato" font-size="12" lengthAdjust="spacing" textLength="53" x="24.5" y="243.5887">WRITING</text><rect fill="#FFFFFF" height="40" rx="12.5" ry="12.5" style="stroke:#000000;stroke-width:1.5;" width="51" x="143.5" y="348.9473"/><text fill="#000000" font-family="Lato" font-size="12" lengthAdjust="spacing" textLength="41" x="148.5" y="373.5887">FAILED</text><rect fill="#FFFFFF" height="40" rx="12.5" ry="12.5" style="stroke:#000000;stroke-width:1.5;" width="50" x="15" y="348.9473"/><text fill="#000000" font-family="Lato" font-size="12" lengthAdjust="spacing" textLength="33" x="23.5" y="373.5887">TRIAL</text><rect fill="#FFFFFF" height="40" rx="12.5" ry="12.5" style="stroke:#000000;stroke-width:1.5;" width="66" x="7" y="464.9473"/><text fill="#000000" font-family="Lato" font-size="12" lengthAdjust="spacing" textLength="56" x="12" y="489.5887">UPDATED</text><rect fill="#FFFFFF" height="40" rx="12.5" ry="12.5" style="stroke:#000000;stroke-width:1.5;" width="50" x="15" y="580.9473"/><text fill="#000000" font-family="Lato" font-size="12" lengthAdjust="spacing" textLength="40" x="20" y="605.5887">READY</text><!--MD5=[c97380125423de60894e9813730c5eee]
link Start to Staging--><path d="M120.94,143.0273 C106.4,162.7573 83.69,193.5773 68.12,214.7073 " fill="none" id="Start-to-Staging" style="stroke:#000000;stroke-width:1.0;"/><polygon fill="#000000" points="65.11,218.8073,73.6714,213.9387,68.0779,214.7834,67.2332,209.19,65.11,218.8073" style="stroke:#000000;stroke-width:1.0;"/><text fill="#000000" font-family="Consolas" font-size="12" lengthAdjust="spacing" textLength="35" x="100" y="185.9355">start</text><!--MD5=[0b0aafcdfecf859159d0f59d797aa148]
link Staging to Staging--><path d="M82.82,228.6273 C100.83,226.6173 117.5,230.0573 117.5,238.9473 C117.5,247.0073 103.81,250.5873 87.83,249.6873 " fill="none" id="Staging-to-Staging" style="stroke:#000000;stroke-width:1.0;"/><polygon fill="#000000" points="82.82,249.2673,91.4444,254.0234,87.8016,249.6955,92.1295,246.0528,82.82,249.2673" style="stroke:#000000;stroke-width:1.0;"/><text fill="#000000" font-family="Consolas" font-size="12" lengthAdjust="spacing" textLength="35" x="123.5" y="243.9355">write</text><!--MD5=[e3675cb05a0991263af73effc6830589]
link Staging to Trial--><path d="M44.15,259.2273 C41.33,268.1473 38.4,278.9573 37,288.9473 C34.45,307.1473 35.39,327.9073 36.86,343.5873 " fill="none" id="Staging-to-Trial" style="stroke:#000000;stroke-width:1.0;"/><polygon fill="#000000" points="37.38,348.6973,40.4593,339.3422,36.8797,343.7224,32.4994,340.1427,37.38,348.6973" style="stroke:#000000;stroke-width:1.0;"/><text fill="#000000" font-family="Consolas" font-size="12" lengthAdjust="spacing" textLength="49" x="46.5" y="302.2769">install</text><text fill="#000000" font-family="Lato" font-size="12" lengthAdjust="spacing" textLength="3" x="95.5" y="301.7848">:</text><text fill="#000000" font-family="Lato" font-size="12" font-style="italic" lengthAdjust="spacing" textLength="69" x="38" y="316.1768">install success</text><!--MD5=[5385c45c5e18a6878cdeccd1eaad970d]
link Staging to Failed--><path d="M77.85,259.0073 C89,267.5373 101.71,278.1073 112,288.9473 C128.18,305.9873 143.59,327.7973 154.29,344.1873 " fill="none" id="Staging-to-Failed" style="stroke:#000000;stroke-width:1.0;"/><polygon fill="#000000" points="157.19,348.6573,155.6645,338.9273,154.4761,344.4579,148.9455,343.2695,157.19,348.6573" style="stroke:#000000;stroke-width:1.0;"/><text fill="#000000" font-family="Consolas" font-size="12" lengthAdjust="spacing" textLength="42" x="137" y="308.9355">reject</text><!--MD5=[4d415c9b773123c37ce42f12237de1fc]
link Trial to Updated--><path d="M40,389.0273 C40,408.4273 40,438.5573 40,459.6473 " fill="none" id="Trial-to-Updated" style="stroke:#000000;stroke-width:1.0;"/><polygon fill="#000000" points="40,464.8073,44,455.8073,40,459.8073,36,455.8073,40,464.8073" style="stroke:#000000;stroke-width:1.0;"/><text fill="#000000" font-family="Consolas" font-size="12" lengthAdjust="spacing" textLength="42" x="41" y="431.9355">accept</text><!--MD5=[71ab68107f7e180decc84935bd3705da]
reverse link Start to Failed--><path d="M145.4,148.1273 C158.4,179.7773 179.91,237.3173 188,288.9473 C190.06,302.1173 190.45,305.8373 188,318.9473 C186.09,329.1673 182.11,340.0073 178.29,348.8773 " fill="none" id="Start-backto-Failed" style="stroke:#000000;stroke-width:1.0;"/><polygon fill="#000000" points="143.39,143.2773,143.1441,153.1231,145.306,147.8956,150.5334,150.0575,143.39,143.2773" style="stroke:#000000;stroke-width:1.0;"/><text fill="#000000" font-family="Consolas" font-size="12" lengthAdjust="spacing" textLength="35" x="182" y="243.9355">clean</text><!--MD5=[91632b8e9666b14c55229d961249920f]
link Trial to Failed--><path d="M65.18,368.9473 C86.09,368.9473 115.91,368.9473 138.23,368.9473 " fill="none" id="Trial-to-Failed" style="stroke:#000000;stroke-width:1.0;"/><polygon fill="#000000" points="143.44,368.9473,134.44,364.9473,138.44,368.9473,134.44,372.9473,143.44,368.9473" style="stroke:#000000;stroke-width:1.0;"/><text fill="#000000" font-family="Consolas" font-size="12" lengthAdjust="spacing" textLength="42" x="83.25" y="362.9355">reject</text><!--MD5=[43a8c4662c8a2715cf5aeba88f635b26]
link Updated to End--><path d="M40,505.0273 C40,524.4273 40,554.5573 40,575.6473 " fill="none" id="Updated-to-End" style="stroke:#000000;stroke-width:1.0;"/><polygon fill="#000000" points="40,580.8073,44,571.8073,40,575.8073,36,571.8073,40,580.8073" style="stroke:#000000;stroke-width:1.0;"/><text fill="#000000" font-family="Consolas" font-size="12" lengthAdjust="spacing" textLength="35" x="41" y="547.9355">clean</text></g></svg>