<?xml version="1.0" encoding="UTF-8" standalone="no"?><svg xmlns="http://www.w3.org/2000/svg" xmlns:xlink="http://www.w3.org/1999/xlink" contentScriptType="application/ecmascript" contentStyleType="text/css" height="510px" preserveAspectRatio="none" style="width:212px;height:510px;background:#FFFFFF;" version="1.1" viewBox="0 0 212 510" width="212px" zoomAndPan="magnify"><defs/><g><text fill="#000000" font-family="Lato" font-size="16" lengthAdjust="spacing" textLength="191" x="4" y="15.7833">FWU Firmware Store states</text><text fill="#000000" font-family="Lato" font-size="16" lengthAdjust="spacing" textLength="0" x="101" y="34.9728"/><text fill="#000000" font-family="Lato" font-size="16" font-style="italic" lengthAdjust="spacing" textLength="125" x="37" y="54.1622">Reboot required: no</text><text fill="#000000" font-family="Lato" font-size="16" font-style="italic" lengthAdjust="spacing" textLength="125" x="37" y="73.3517">Testing required: no</text><text fill="#000000" font-family="Lato" font-size="16" lengthAdjust="spacing" textLength="0" x="101" y="92.5411"/><rect fill="#FFFFFF" height="40" rx="12.5" ry="12.5" style="stroke:#000000;stroke-width:1.5;" width="50" x="101" y="102.9473"/><text fill="#000000" font-family="Lato" font-size="12" lengthAdjust="spacing" textLength="40" x="106" y="127.5887">READY</text><rect fill="#FFFFFF" height="40" rx="12.5" ry="12.5" style="stroke:#000000;stroke-width:1.5;" width="63" x="10.5" y="218.9473"/><text fill="#000000" font-family="Lato" font-size="12" lengthAdjust="spacing" textLength="53" x="15.5" y="243.5887">WRITING</text><rect fill="#FFFFFF" height="40" rx="12.5" ry="12.5" style="stroke:#000000;stroke-width:1.5;" width="51" x="116.5" y="348.9473"/><text fill="#000000" font-family="Lato" font-size="12" lengthAdjust="spacing" textLength="41" x="121.5" y="373.5887">FAILED</text><rect fill="#FFFFFF" height="40" rx="12.5" ry="12.5" style="stroke:#000000;stroke-width:1.5;" width="66" x="7" y="348.9473"/><text fill="#000000" font-family="Lato" font-size="12" lengthAdjust="spacing" textLength="56" x="12" y="373.5887">UPDATED</text><rect fill="#FFFFFF" height="40" rx="12.5" ry="12.5" style="stroke:#000000;stroke-width:1.5;" width="50" x="15" y="464.9473"/><text fill="#000000" font-family="Lato" font-size="12" lengthAdjust="spacing" textLength="40" x="20" y="489.5887">READY</text><!--MD5=[c97380125423de60894e9813730c5eee]
link Start to Staging--><path d="M111.94,143.0273 C97.4,162.7573 74.69,193.5773 59.12,214.7073 " fill="none" id="Start-to-Staging" style="stroke:#000000;stroke-width:1.0;"/><polygon fill="#000000" points="56.11,218.8073,64.6714,213.9387,59.0779,214.7834,58.2332,209.19,56.11,218.8073" style="stroke:#000000;stroke-width:1.0;"/><text fill="#000000" font-family="Consolas" font-size="12" lengthAdjust="spacing" textLength="35" x="91" y="185.9355">start</text><!--MD5=[0b0aafcdfecf859159d0f59d797aa148]
link Staging to Staging--><path d="M73.82,228.6273 C91.83,226.6173 108.5,230.0573 108.5,238.9473 C108.5,247.0073 94.81,250.5873 78.83,249.6873 " fill="none" id="Staging-to-Staging" style="stroke:#000000;stroke-width:1.0;"/><polygon fill="#000000" points="73.82,249.2673,82.4444,254.0234,78.8016,249.6955,83.1295,246.0528,73.82,249.2673" style="stroke:#000000;stroke-width:1.0;"/><text fill="#000000" font-family="Consolas" font-size="12" lengthAdjust="spacing" textLength="35" x="114.5" y="243.9355">write</text><!--MD5=[5385c45c5e18a6878cdeccd1eaad970d]
link Staging to Failed--><path d="M71,259.1373 C81.98,267.3873 93.99,277.7173 103,288.9473 C116.27,305.4873 126.61,327.2873 133.3,343.7973 " fill="none" id="Staging-to-Failed" style="stroke:#000000;stroke-width:1.0;"/><polygon fill="#000000" points="135.25,348.7373,135.6737,338.8975,133.4178,344.0851,128.2302,341.8291,135.25,348.7373" style="stroke:#000000;stroke-width:1.0;"/><text fill="#000000" font-family="Consolas" font-size="12" lengthAdjust="spacing" textLength="42" x="123" y="308.9355">reject</text><!--MD5=[b8bd51a7e3e5c0a2ab3966f317981409]
link Updated to Failed--><!--MD5=[f298e22b3055f34467490e2d2ed3b65a]
link Staging to Updated--><path d="M35.15,259.2273 C32.33,268.1473 29.4,278.9573 28,288.9473 C26.15,302.1473 26.4,305.7073 28,318.9473 C28.97,326.9973 30.81,335.6373 32.76,343.3873 " fill="none" id="Staging-to-Updated" style="stroke:#000000;stroke-width:1.0;"/><polygon fill="#000000" points="34.12,348.5973,35.7234,338.8798,32.8602,343.7586,27.9814,340.8954,34.12,348.5973" style="stroke:#000000;stroke-width:1.0;"/><text fill="#000000" font-family="Consolas" font-size="12" lengthAdjust="spacing" textLength="49" x="37.5" y="302.2769">install</text><text fill="#000000" font-family="Lato" font-size="12" lengthAdjust="spacing" textLength="3" x="86.5" y="301.7848">:</text><text fill="#000000" font-family="Lato" font-size="12" font-style="italic" lengthAdjust="spacing" textLength="69" x="29" y="316.1768">install success</text><!--MD5=[71ab68107f7e180decc84935bd3705da]
reverse link Start to Failed--><path d="M135.58,147.9373 C147.61,179.6073 167.48,237.3973 174,288.9473 C175.67,302.1773 177.8,306.1673 174,318.9473 C170.81,329.6573 164.46,340.2173 158.24,348.7673 " fill="none" id="Start-backto-Failed" style="stroke:#000000;stroke-width:1.0;"/><polygon fill="#000000" points="133.72,143.0873,133.1973,152.9222,135.5053,147.7577,140.6699,150.0657,133.72,143.0873" style="stroke:#000000;stroke-width:1.0;"/><text fill="#000000" font-family="Consolas" font-size="12" lengthAdjust="spacing" textLength="35" x="169" y="243.9355">clean</text><!--MD5=[43a8c4662c8a2715cf5aeba88f635b26]
link Updated to End--><path d="M40,389.0273 C40,408.4273 40,438.5573 40,459.6473 " fill="none" id="Updated-to-End" style="stroke:#000000;stroke-width:1.0;"/><polygon fill="#000000" points="40,464.8073,44,455.8073,40,459.8073,36,455.8073,40,464.8073" style="stroke:#000000;stroke-width:1.0;"/><text fill="#000000" font-family="Consolas" font-size="12" lengthAdjust="spacing" textLength="35" x="41" y="431.9355">clean</text></g></svg>