<?xml version="1.0" encoding="UTF-8" standalone="no"?><svg xmlns="http://www.w3.org/2000/svg" xmlns:xlink="http://www.w3.org/1999/xlink" contentScriptType="application/ecmascript" contentStyleType="text/css" height="682px" preserveAspectRatio="none" style="width:288px;height:682px;background:#FFFFFF;" version="1.1" viewBox="0 0 288 682" width="288px" zoomAndPan="magnify"><defs/><g><text fill="#000000" font-family="Lato" font-size="16" lengthAdjust="spacing" textLength="191" x="45" y="15.7833">FWU Firmware Store states</text><text fill="#000000" font-family="Lato" font-size="16" lengthAdjust="spacing" textLength="0" x="142" y="34.9728"/><text fill="#000000" font-family="Lato" font-size="16" font-style="italic" lengthAdjust="spacing" textLength="125" x="78" y="54.1622">Reboot required: no</text><text fill="#000000" font-family="Lato" font-size="16" font-style="italic" lengthAdjust="spacing" textLength="125" x="78" y="73.3517">Testing required: no</text><text fill="#000000" font-family="Lato" font-size="16" lengthAdjust="spacing" textLength="0" x="142" y="92.5411"/><rect fill="#DDDDDD" height="38.7842" rx="5" ry="5" style="stroke:#000000;stroke-width:1.0;" width="264" x="8" y="103.9473"/><text fill="#0000FF" font-family="Consolas" font-size="12" lengthAdjust="spacing" text-decoration="line-through" textLength="0" x="35" y="121.2769"/><text fill="#000000" font-family="Lato" font-size="12" lengthAdjust="spacing" textLength="229" x="37" y="120.7848">Blue transitions apply to a single component</text><text fill="#8B0000" font-family="Consolas" font-size="12" lengthAdjust="spacing" text-decoration="line-through" textLength="0" x="35" y="135.6689"/><text fill="#000000" font-family="Lato" font-size="12" lengthAdjust="spacing" textLength="208" x="37" y="135.1768">Red transitions apply to all compoments</text><rect fill="#FFFFFF" height="40" rx="12.5" ry="12.5" style="stroke:#000000;stroke-width:1.5;" width="50" x="141.5" y="158.7314"/><text fill="#000000" font-family="Lato" font-size="12" lengthAdjust="spacing" textLength="40" x="146.5" y="183.3729">READY</text><rect fill="#FFFFFF" height="40" rx="12.5" ry="12.5" style="stroke:#000000;stroke-width:1.5;" width="63" x="51" y="274.7314"/><text fill="#000000" font-family="Lato" font-size="12" lengthAdjust="spacing" textLength="53" x="56" y="299.3729">WRITING</text><rect fill="#FFFFFF" height="40" rx="12.5" ry="12.5" style="stroke:#000000;stroke-width:1.5;" width="79" x="43" y="390.7314"/><text fill="#000000" font-family="Lato" font-size="12" lengthAdjust="spacing" textLength="69" x="48" y="415.3729">CANDIDATE</text><rect fill="#FFFFFF" height="40" rx="12.5" ry="12.5" style="stroke:#000000;stroke-width:1.5;" width="51" x="201" y="390.7314"/><text fill="#000000" font-family="Lato" font-size="12" lengthAdjust="spacing" textLength="41" x="206" y="415.3729">FAILED</text><rect fill="#FFFFFF" height="40" rx="12.5" ry="12.5" style="stroke:#000000;stroke-width:1.5;" width="66" x="49.5" y="520.7314"/><text fill="#000000" font-family="Lato" font-size="12" lengthAdjust="spacing" textLength="56" x="54.5" y="545.3729">UPDATED</text><rect fill="#FFFFFF" height="40" rx="12.5" ry="12.5" style="stroke:#000000;stroke-width:1.5;" width="50" x="57.5" y="636.7314"/><text fill="#000000" font-family="Lato" font-size="12" lengthAdjust="spacing" textLength="40" x="62.5" y="661.3729">READY</text><!--MD5=[c97380125423de60894e9813730c5eee]
link Start to Staging--><path d="M152.44,198.8114 C137.9,218.5414 115.19,249.3614 99.62,270.4914 " fill="none" id="Start-to-Staging" style="stroke:#0000FF;stroke-width:1.0;"/><polygon fill="#0000FF" points="96.61,274.5914,105.1714,269.7229,99.5779,270.5676,98.7332,264.9742,96.61,274.5914" style="stroke:#0000FF;stroke-width:1.0;"/><text fill="#000000" font-family="Consolas" font-size="12" lengthAdjust="spacing" textLength="35" x="131.5" y="241.7197">start</text><!--MD5=[0b0aafcdfecf859159d0f59d797aa148]
link Staging to Staging--><path d="M114.32,284.4114 C132.33,282.4014 149,285.8414 149,294.7314 C149,302.7914 135.31,306.3714 119.33,305.4714 " fill="none" id="Staging-to-Staging" style="stroke:#0000FF;stroke-width:1.0;"/><polygon fill="#0000FF" points="114.32,305.0514,122.9444,309.8075,119.3016,305.4797,123.6295,301.8369,114.32,305.0514" style="stroke:#0000FF;stroke-width:1.0;"/><text fill="#000000" font-family="Consolas" font-size="12" lengthAdjust="spacing" textLength="35" x="155" y="299.7197">write</text><!--MD5=[99c0e08106d1440140b42f50458793ab]
link Staging to Candidate--><path d="M82.5,314.8114 C82.5,334.2114 82.5,364.3414 82.5,385.4314 " fill="none" id="Staging-to-Candidate" style="stroke:#0000FF;stroke-width:1.0;"/><polygon fill="#0000FF" points="82.5,390.5914,86.5,381.5914,82.5,385.5914,78.5,381.5914,82.5,390.5914" style="stroke:#0000FF;stroke-width:1.0;"/><text fill="#000000" font-family="Consolas" font-size="12" lengthAdjust="spacing" textLength="42" x="83.5" y="357.7197">finish</text><!--MD5=[5385c45c5e18a6878cdeccd1eaad970d]
link Staging to Failed--><path d="M106.6,314.8114 C131.83,334.7914 171.43,366.1314 198.15,387.2814 " fill="none" id="Staging-to-Failed" style="stroke:#0000FF;stroke-width:1.0;"/><polygon fill="#0000FF" points="202.32,390.5914,197.7326,381.8762,198.3949,387.4941,192.7769,388.1564,202.32,390.5914" style="stroke:#0000FF;stroke-width:1.0;"/><text fill="#000000" font-family="Consolas" font-size="12" lengthAdjust="spacing" textLength="42" x="164.5" y="357.7197">cancel</text><!--MD5=[39663e6301ccb4f092a8fe255e191b3e]
link Candidate to Updated--><path d="M82.5,430.8914 C82.5,453.4214 82.5,490.8414 82.5,515.4014 " fill="none" id="Candidate-to-Updated" style="stroke:#8B0000;stroke-width:1.0;"/><polygon fill="#8B0000" points="82.5,520.4414,86.5,511.4414,82.5,515.4414,78.5,511.4414,82.5,520.4414" style="stroke:#8B0000;stroke-width:1.0;"/><text fill="#000000" font-family="Consolas" font-size="12" lengthAdjust="spacing" textLength="49" x="92" y="474.061">install</text><text fill="#000000" font-family="Lato" font-size="12" lengthAdjust="spacing" textLength="3" x="141" y="473.5689">:</text><text fill="#000000" font-family="Lato" font-size="12" font-style="italic" lengthAdjust="spacing" textLength="69" x="83.5" y="487.961">install success</text><!--MD5=[6e8b06a321fbf587dbbb055d0b4e0f9e]
link Candidate to Failed--><path d="M122.23,410.7314 C145.5,410.7314 174.45,410.7314 195.94,410.7314 " fill="none" id="Candidate-to-Failed" style="stroke:#0000FF;stroke-width:1.0;"/><polygon fill="#0000FF" points="200.95,410.7314,191.95,406.7314,195.95,410.7314,191.95,414.7314,200.95,410.7314" style="stroke:#0000FF;stroke-width:1.0;"/><text fill="#000000" font-family="Consolas" font-size="12" lengthAdjust="spacing" textLength="42" x="140.5" y="404.7197">cancel</text><!--MD5=[71ab68107f7e180decc84935bd3705da]
reverse link Start to Failed--><path d="M174.8,203.6814 C185.57,235.5314 204.3,293.7614 215.5,344.7314 C218.87,360.0414 221.78,377.5814 223.76,390.5814 " fill="none" id="Start-backto-Failed" style="stroke:#0000FF;stroke-width:1.0;"/><polygon fill="#0000FF" points="173.15,198.8014,172.2722,208.6111,174.7654,203.5333,179.8432,206.0265,173.15,198.8014" style="stroke:#0000FF;stroke-width:1.0;"/><text fill="#000000" font-family="Consolas" font-size="12" lengthAdjust="spacing" textLength="35" x="208.5" y="299.7197">clean</text><!--MD5=[43a8c4662c8a2715cf5aeba88f635b26]
link Updated to End--><path d="M82.5,560.8114 C82.5,580.2114 82.5,610.3414 82.5,631.4314 " fill="none" id="Updated-to-End" style="stroke:#0000FF;stroke-width:1.0;"/><polygon fill="#0000FF" points="82.5,636.5914,86.5,627.5914,82.5,631.5914,78.5,627.5914,82.5,636.5914" style="stroke:#0000FF;stroke-width:1.0;"/><text fill="#000000" font-family="Consolas" font-size="12" lengthAdjust="spacing" textLength="35" x="83.5" y="603.7197">clean</text></g></svg>