<?xml version="1.0" encoding="UTF-8" standalone="no"?><svg xmlns="http://www.w3.org/2000/svg" xmlns:xlink="http://www.w3.org/1999/xlink" contentScriptType="application/ecmascript" contentStyleType="text/css" height="841px" preserveAspectRatio="none" style="width:305px;height:841px;background:#FFFFFF;" version="1.1" viewBox="0 0 305 841" width="305px" zoomAndPan="magnify"><defs/><g><text fill="#000000" font-family="Lato" font-size="16" lengthAdjust="spacing" textLength="191" x="53.5" y="15.7833">FWU Firmware Store states</text><text fill="#000000" font-family="Lato" font-size="16" lengthAdjust="spacing" textLength="0" x="150.5" y="34.9728"/><text fill="#000000" font-family="Lato" font-size="16" font-style="italic" lengthAdjust="spacing" textLength="130" x="84" y="54.1622">Reboot required: yes</text><text fill="#000000" font-family="Lato" font-size="16" font-style="italic" lengthAdjust="spacing" textLength="125" x="86.5" y="73.3517">Testing required: no</text><text fill="#000000" font-family="Lato" font-size="16" lengthAdjust="spacing" textLength="0" x="150.5" y="92.5411"/><rect fill="#DDDDDD" height="67.5684" rx="5" ry="5" style="stroke:#000000;stroke-width:1.0;" width="281" x="8" y="103.9473"/><text fill="#000000" font-family="Consolas" font-size="12" lengthAdjust="spacing" textLength="7" x="14" y="121.2769">*</text><text fill="#000000" font-family="Lato" font-size="12" lengthAdjust="spacing" textLength="207" x="37" y="120.7848">Transient states that always transition at</text><text fill="#000000" font-family="Lato" font-size="12" font-weight="bold" lengthAdjust="spacing" textLength="37" x="246" y="120.7848">reboot</text><text fill="#0000FF" font-family="Consolas" font-size="12" lengthAdjust="spacing" text-decoration="line-through" textLength="0" x="35" y="135.6689"/><text fill="#000000" font-family="Lato" font-size="12" lengthAdjust="spacing" textLength="229" x="37" y="135.1768">Blue transitions apply to a single component</text><text fill="#8B0000" font-family="Consolas" font-size="12" lengthAdjust="spacing" text-decoration="line-through" textLength="0" x="35" y="150.061"/><text fill="#000000" font-family="Lato" font-size="12" lengthAdjust="spacing" textLength="208" x="37" y="149.5689">Red transitions apply to all compoments</text><text fill="#000000" font-family="Consolas" font-size="12" lengthAdjust="spacing" textLength="21" x="14" y="164.4531">---</text><text fill="#000000" font-family="Lato" font-size="12" lengthAdjust="spacing" textLength="197" x="37" y="163.961">Dashed lines indicate a transition over</text><text fill="#000000" font-family="Lato" font-size="12" font-weight="bold" lengthAdjust="spacing" textLength="37" x="236" y="163.961">reboot</text><rect fill="#FFFFFF" height="40" rx="12.5" ry="12.5" style="stroke:#000000;stroke-width:1.5;" width="50" x="131.75" y="187.5156"/><text fill="#000000" font-family="Lato" font-size="12" lengthAdjust="spacing" textLength="40" x="136.75" y="212.1571">READY</text><rect fill="#FFFFFF" height="40" rx="12.5" ry="12.5" style="stroke:#000000;stroke-width:1.5;" width="63" x="41.25" y="303.5156"/><text fill="#000000" font-family="Lato" font-size="12" lengthAdjust="spacing" textLength="53" x="46.25" y="328.1571">WRITING</text><rect fill="#FFFFFF" height="40" rx="12.5" ry="12.5" style="stroke:#000000;stroke-width:1.5;" width="79" x="33.25" y="419.5156"/><text fill="#000000" font-family="Lato" font-size="12" lengthAdjust="spacing" textLength="69" x="38.25" y="444.1571">CANDIDATE</text><rect fill="#FFFFFF" height="40" rx="12.5" ry="12.5" style="stroke:#000000;stroke-width:1.5;" width="63" x="132.25" y="549.5156"/><text fill="#000000" font-family="Lato" font-size="12" lengthAdjust="spacing" textLength="53" x="137.25" y="574.1571">STAGED *</text><rect fill="#FFFFFF" height="40" rx="12.5" ry="12.5" style="stroke:#000000;stroke-width:1.5;" width="51" x="191.25" y="419.5156"/><text fill="#000000" font-family="Lato" font-size="12" lengthAdjust="spacing" textLength="41" x="196.25" y="444.1571">FAILED</text><rect fill="#FFFFFF" height="40" rx="12.5" ry="12.5" style="stroke:#000000;stroke-width:1.5;" width="66" x="130.75" y="679.5156"/><text fill="#000000" font-family="Lato" font-size="12" lengthAdjust="spacing" textLength="56" x="135.75" y="704.1571">UPDATED</text><rect fill="#FFFFFF" height="40" rx="12.5" ry="12.5" style="stroke:#000000;stroke-width:1.5;" width="50" x="138.75" y="795.5156"/><text fill="#000000" font-family="Lato" font-size="12" lengthAdjust="spacing" textLength="40" x="143.75" y="820.1571">READY</text><!--MD5=[c97380125423de60894e9813730c5eee]
link Start to Staging--><path d="M142.69,227.5956 C128.15,247.3256 105.44,278.1456 89.87,299.2756 " fill="none" id="Start-to-Staging" style="stroke:#0000FF;stroke-width:1.0;"/><polygon fill="#0000FF" points="86.86,303.3756,95.4214,298.5071,89.8279,299.3518,88.9832,293.7584,86.86,303.3756" style="stroke:#0000FF;stroke-width:1.0;"/><text fill="#000000" font-family="Consolas" font-size="12" lengthAdjust="spacing" textLength="35" x="121.75" y="270.5039">start</text><!--MD5=[0b0aafcdfecf859159d0f59d797aa148]
link Staging to Staging--><path d="M104.57,313.1956 C122.58,311.1856 139.25,314.6256 139.25,323.5156 C139.25,331.5756 125.56,335.1556 109.58,334.2556 " fill="none" id="Staging-to-Staging" style="stroke:#0000FF;stroke-width:1.0;"/><polygon fill="#0000FF" points="104.57,333.8356,113.1944,338.5917,109.5516,334.2638,113.8795,330.6211,104.57,333.8356" style="stroke:#0000FF;stroke-width:1.0;"/><text fill="#000000" font-family="Consolas" font-size="12" lengthAdjust="spacing" textLength="35" x="145.25" y="328.5039">write</text><!--MD5=[99c0e08106d1440140b42f50458793ab]
link Staging to Candidate--><path d="M72.75,343.5956 C72.75,362.9956 72.75,393.1256 72.75,414.2156 " fill="none" id="Staging-to-Candidate" style="stroke:#0000FF;stroke-width:1.0;"/><polygon fill="#0000FF" points="72.75,419.3756,76.75,410.3756,72.75,414.3756,68.75,410.3756,72.75,419.3756" style="stroke:#0000FF;stroke-width:1.0;"/><text fill="#000000" font-family="Consolas" font-size="12" lengthAdjust="spacing" textLength="42" x="73.75" y="386.5039">finish</text><!--MD5=[5385c45c5e18a6878cdeccd1eaad970d]
link Staging to Failed--><path d="M96.85,343.5956 C122.08,363.5756 161.68,394.9156 188.4,416.0656 " fill="none" id="Staging-to-Failed" style="stroke:#0000FF;stroke-width:1.0;"/><polygon fill="#0000FF" points="192.57,419.3756,187.9826,410.6604,188.6449,416.2783,183.0269,416.9406,192.57,419.3756" style="stroke:#0000FF;stroke-width:1.0;"/><text fill="#000000" font-family="Consolas" font-size="12" lengthAdjust="spacing" textLength="42" x="154.75" y="386.5039">cancel</text><!--MD5=[6e8b06a321fbf587dbbb055d0b4e0f9e]
link Candidate to Failed--><path d="M112.48,439.5156 C135.75,439.5156 164.7,439.5156 186.19,439.5156 " fill="none" id="Candidate-to-Failed" style="stroke:#0000FF;stroke-width:1.0;"/><polygon fill="#0000FF" points="191.2,439.5156,182.2,435.5156,186.2,439.5156,182.2,443.5156,191.2,439.5156" style="stroke:#0000FF;stroke-width:1.0;"/><text fill="#000000" font-family="Consolas" font-size="12" lengthAdjust="spacing" textLength="42" x="130.75" y="433.5039">cancel</text><!--MD5=[86e4efad9860276429e6c81242466072]
link Candidate to Staged--><path d="M73.82,459.6256 C75.6,476.6656 80.32,501.6256 92.75,519.5156 C101.66,532.3356 115.08,542.8356 127.86,550.7856 " fill="none" id="Candidate-to-Staged" style="stroke:#8B0000;stroke-width:1.0;"/><polygon fill="#8B0000" points="132.17,553.3756,126.5303,545.3014,127.8888,550.7927,122.3975,552.1512,132.17,553.3756" style="stroke:#8B0000;stroke-width:1.0;"/><text fill="#000000" font-family="Consolas" font-size="12" lengthAdjust="spacing" textLength="49" x="93.75" y="509.5039">install</text><!--MD5=[ffe6d1617caf564d97775b8dde2c381a]
link Staged to Updated--><path d="M163.75,589.6756 C163.75,612.2056 163.75,649.6256 163.75,674.1856 " fill="none" id="Staged-to-Updated" style="stroke:#8B0000;stroke-width:1.0;stroke-dasharray:7.0,7.0;"/><polygon fill="#8B0000" points="163.75,679.2256,167.75,670.2256,163.75,674.2256,159.75,670.2256,163.75,679.2256" style="stroke:#8B0000;stroke-width:1.0;"/><text fill="#000000" font-family="Consolas" font-size="12" lengthAdjust="spacing" textLength="42" x="176.75" y="632.8452">reboot</text><text fill="#000000" font-family="Lato" font-size="12" lengthAdjust="spacing" textLength="3" x="218.75" y="632.3531">:</text><text fill="#000000" font-family="Lato" font-size="12" font-style="italic" lengthAdjust="spacing" textLength="69" x="164.75" y="646.7452">install success</text><!--MD5=[6b849a9d54236769877241b12840d8d2]
reverse link Failed to Staged--><path d="M218.18,464.8456 C218.22,481.0056 216.46,502.3456 208.75,519.5156 C203.74,530.6856 195.16,541.0056 186.83,549.2656 " fill="none" id="Failed-backto-Staged" style="stroke:#8B0000;stroke-width:1.0;stroke-dasharray:7.0,7.0;"/><polygon fill="#8B0000" points="218.11,459.5756,214.239,468.6318,218.1814,464.5751,222.2382,468.5176,218.11,459.5756" style="stroke:#8B0000;stroke-width:1.0;"/><text fill="#000000" font-family="Consolas" font-size="12" lengthAdjust="spacing" textLength="42" x="224.25" y="502.8452">reboot</text><text fill="#000000" font-family="Lato" font-size="12" lengthAdjust="spacing" textLength="3" x="266.25" y="502.3531">:</text><text fill="#000000" font-family="Lato" font-size="12" font-style="italic" lengthAdjust="spacing" textLength="60" x="216.75" y="516.7452">install failed</text><!--MD5=[6b849a9d54236769877241b12840d8d2]
reverse link Failed to Staged--><path d="M186.79,457.0156 C175.16,465.1356 163.12,476.0956 156.75,489.5156 C147.78,508.4256 151.93,532.7256 156.78,549.3556 " fill="none" id="Failed-backto-Staged-1" style="stroke:#8B0000;stroke-width:1.0;"/><polygon fill="#8B0000" points="191.05,454.1456,181.3494,455.8482,186.9008,456.9356,185.8134,462.487,191.05,454.1456" style="stroke:#8B0000;stroke-width:1.0;"/><text fill="#000000" font-family="Consolas" font-size="12" lengthAdjust="spacing" textLength="42" x="157.75" y="509.5039">reject</text><!--MD5=[71ab68107f7e180decc84935bd3705da]
reverse link Start to Failed--><path d="M165.05,232.4656 C175.82,264.3156 194.55,322.5456 205.75,373.5156 C209.12,388.8256 212.03,406.3656 214.01,419.3656 " fill="none" id="Start-backto-Failed" style="stroke:#0000FF;stroke-width:1.0;"/><polygon fill="#0000FF" points="163.4,227.5856,162.5222,237.3953,165.0154,232.3175,170.0932,234.8106,163.4,227.5856" style="stroke:#0000FF;stroke-width:1.0;"/><text fill="#000000" font-family="Consolas" font-size="12" lengthAdjust="spacing" textLength="35" x="198.75" y="328.5039">clean</text><!--MD5=[43a8c4662c8a2715cf5aeba88f635b26]
link Updated to End--><path d="M163.75,719.5956 C163.75,738.9956 163.75,769.1256 163.75,790.2156 " fill="none" id="Updated-to-End" style="stroke:#0000FF;stroke-width:1.0;"/><polygon fill="#0000FF" points="163.75,795.3756,167.75,786.3756,163.75,790.3756,159.75,786.3756,163.75,795.3756" style="stroke:#0000FF;stroke-width:1.0;"/><text fill="#000000" font-family="Consolas" font-size="12" lengthAdjust="spacing" textLength="35" x="164.75" y="762.5039">clean</text></g></svg>