<?xml version="1.0" encoding="UTF-8" standalone="no"?><svg xmlns="http://www.w3.org/2000/svg" xmlns:xlink="http://www.w3.org/1999/xlink" contentScriptType="application/ecmascript" contentStyleType="text/css" height="957px" preserveAspectRatio="none" style="width:403px;height:957px;background:#FFFFFF;" version="1.1" viewBox="0 0 403 957" width="403px" zoomAndPan="magnify"><defs/><g><text fill="#000000" font-family="Lato" font-size="16" lengthAdjust="spacing" textLength="191" x="99.75" y="15.7833">FWU Firmware Store states</text><text fill="#000000" font-family="Lato" font-size="16" lengthAdjust="spacing" textLength="0" x="196.75" y="34.9728"/><text fill="#000000" font-family="Lato" font-size="16" font-style="italic" lengthAdjust="spacing" textLength="130" x="130.25" y="54.1622">Reboot required: yes</text><text fill="#000000" font-family="Lato" font-size="16" font-style="italic" lengthAdjust="spacing" textLength="130" x="130.25" y="73.3517">Testing required: yes</text><text fill="#000000" font-family="Lato" font-size="16" lengthAdjust="spacing" textLength="0" x="196.75" y="92.5411"/><rect fill="#DDDDDD" height="67.5684" rx="5" ry="5" style="stroke:#000000;stroke-width:1.0;" width="281" x="54.25" y="103.9473"/><text fill="#000000" font-family="Consolas" font-size="12" lengthAdjust="spacing" textLength="7" x="60.25" y="121.2769">*</text><text fill="#000000" font-family="Lato" font-size="12" lengthAdjust="spacing" textLength="207" x="83.25" y="120.7848">Transient states that always transition at</text><text fill="#000000" font-family="Lato" font-size="12" font-weight="bold" lengthAdjust="spacing" textLength="37" x="292.25" y="120.7848">reboot</text><text fill="#0000FF" font-family="Consolas" font-size="12" lengthAdjust="spacing" text-decoration="line-through" textLength="0" x="81.25" y="135.6689"/><text fill="#000000" font-family="Lato" font-size="12" lengthAdjust="spacing" textLength="229" x="83.25" y="135.1768">Blue transitions apply to a single component</text><text fill="#8B0000" font-family="Consolas" font-size="12" lengthAdjust="spacing" text-decoration="line-through" textLength="0" x="81.25" y="150.061"/><text fill="#000000" font-family="Lato" font-size="12" lengthAdjust="spacing" textLength="208" x="83.25" y="149.5689">Red transitions apply to all compoments</text><text fill="#000000" font-family="Consolas" font-size="12" lengthAdjust="spacing" textLength="21" x="60.25" y="164.4531">---</text><text fill="#000000" font-family="Lato" font-size="12" lengthAdjust="spacing" textLength="197" x="83.25" y="163.961">Dashed lines indicate a transition over</text><text fill="#000000" font-family="Lato" font-size="12" font-weight="bold" lengthAdjust="spacing" textLength="37" x="282.25" y="163.961">reboot</text><rect fill="#FFFFFF" height="40" rx="12.5" ry="12.5" style="stroke:#000000;stroke-width:1.5;" width="50" x="105.5" y="187.5156"/><text fill="#000000" font-family="Lato" font-size="12" lengthAdjust="spacing" textLength="40" x="110.5" y="212.1571">READY</text><rect fill="#FFFFFF" height="40" rx="12.5" ry="12.5" style="stroke:#000000;stroke-width:1.5;" width="63" x="15" y="303.5156"/><text fill="#000000" font-family="Lato" font-size="12" lengthAdjust="spacing" textLength="53" x="20" y="328.1571">WRITING</text><rect fill="#FFFFFF" height="40" rx="12.5" ry="12.5" style="stroke:#000000;stroke-width:1.5;" width="79" x="7" y="419.5156"/><text fill="#000000" font-family="Lato" font-size="12" lengthAdjust="spacing" textLength="69" x="12" y="444.1571">CANDIDATE</text><rect fill="#FFFFFF" height="40" rx="12.5" ry="12.5" style="stroke:#000000;stroke-width:1.5;" width="63" x="100" y="549.5156"/><text fill="#000000" font-family="Lato" font-size="12" lengthAdjust="spacing" textLength="53" x="105" y="574.1571">STAGED *</text><rect fill="#FFFFFF" height="40" rx="12.5" ry="12.5" style="stroke:#000000;stroke-width:1.5;" width="51" x="173" y="419.5156"/><text fill="#000000" font-family="Lato" font-size="12" lengthAdjust="spacing" textLength="41" x="178" y="444.1571">FAILED</text><rect fill="#FFFFFF" height="40" rx="12.5" ry="12.5" style="stroke:#000000;stroke-width:1.5;" width="75" x="226" y="549.5156"/><text fill="#000000" font-family="Lato" font-size="12" lengthAdjust="spacing" textLength="65" x="231" y="574.1571">REJECTED *</text><rect fill="#FFFFFF" height="40" rx="12.5" ry="12.5" style="stroke:#000000;stroke-width:1.5;" width="50" x="179.5" y="679.5156"/><text fill="#000000" font-family="Lato" font-size="12" lengthAdjust="spacing" textLength="40" x="184.5" y="704.1571">TRIAL *</text><rect fill="#FFFFFF" height="40" rx="12.5" ry="12.5" style="stroke:#000000;stroke-width:1.5;" width="66" x="171.5" y="795.5156"/><text fill="#000000" font-family="Lato" font-size="12" lengthAdjust="spacing" textLength="56" x="176.5" y="820.1571">UPDATED</text><rect fill="#FFFFFF" height="40" rx="12.5" ry="12.5" style="stroke:#000000;stroke-width:1.5;" width="50" x="179.5" y="911.5156"/><text fill="#000000" font-family="Lato" font-size="12" lengthAdjust="spacing" textLength="40" x="184.5" y="936.1571">READY</text><!--MD5=[c97380125423de60894e9813730c5eee]
link Start to Staging--><path d="M116.44,227.5956 C101.9,247.3256 79.19,278.1456 63.62,299.2756 " fill="none" id="Start-to-Staging" style="stroke:#0000FF;stroke-width:1.0;"/><polygon fill="#0000FF" points="60.61,303.3756,69.1714,298.5071,63.5779,299.3518,62.7332,293.7584,60.61,303.3756" style="stroke:#0000FF;stroke-width:1.0;"/><text fill="#000000" font-family="Consolas" font-size="12" lengthAdjust="spacing" textLength="35" x="95.5" y="270.5039">start</text><!--MD5=[0b0aafcdfecf859159d0f59d797aa148]
link Staging to Staging--><path d="M78.32,313.1956 C96.33,311.1856 113,314.6256 113,323.5156 C113,331.5756 99.31,335.1556 83.33,334.2556 " fill="none" id="Staging-to-Staging" style="stroke:#0000FF;stroke-width:1.0;"/><polygon fill="#0000FF" points="78.32,333.8356,86.9444,338.5917,83.3016,334.2638,87.6295,330.6211,78.32,333.8356" style="stroke:#0000FF;stroke-width:1.0;"/><text fill="#000000" font-family="Consolas" font-size="12" lengthAdjust="spacing" textLength="35" x="119" y="328.5039">write</text><!--MD5=[99c0e08106d1440140b42f50458793ab]
link Staging to Candidate--><path d="M46.5,343.5956 C46.5,362.9956 46.5,393.1256 46.5,414.2156 " fill="none" id="Staging-to-Candidate" style="stroke:#0000FF;stroke-width:1.0;"/><polygon fill="#0000FF" points="46.5,419.3756,50.5,410.3756,46.5,414.3756,42.5,410.3756,46.5,419.3756" style="stroke:#0000FF;stroke-width:1.0;"/><text fill="#000000" font-family="Consolas" font-size="12" lengthAdjust="spacing" textLength="42" x="47.5" y="386.5039">finish</text><!--MD5=[5385c45c5e18a6878cdeccd1eaad970d]
link Staging to Failed--><path d="M71.94,343.5956 C98.68,363.6556 140.71,395.1756 168.92,416.3256 " fill="none" id="Staging-to-Failed" style="stroke:#0000FF;stroke-width:1.0;"/><polygon fill="#0000FF" points="172.98,419.3756,168.18,410.7756,168.98,416.3756,163.38,417.1756,172.98,419.3756" style="stroke:#0000FF;stroke-width:1.0;"/><text fill="#000000" font-family="Consolas" font-size="12" lengthAdjust="spacing" textLength="42" x="133.5" y="386.5039">cancel</text><!--MD5=[86e4efad9860276429e6c81242466072]
link Candidate to Staged--><path d="M43.01,459.8456 C40.98,476.8056 40.65,501.5056 51.5,519.5156 C61.41,535.9656 79.16,547.6556 95.43,555.4856 " fill="none" id="Candidate-to-Staged" style="stroke:#8B0000;stroke-width:1.0;"/><polygon fill="#8B0000" points="99.97,557.5856,93.479,550.1784,95.4315,555.4876,90.1222,557.44,99.97,557.5856" style="stroke:#8B0000;stroke-width:1.0;"/><text fill="#000000" font-family="Consolas" font-size="12" lengthAdjust="spacing" textLength="49" x="52.5" y="509.5039">install</text><!--MD5=[6e8b06a321fbf587dbbb055d0b4e0f9e]
link Candidate to Failed--><path d="M86.04,439.5156 C111.55,439.5156 144.25,439.5156 167.81,439.5156 " fill="none" id="Candidate-to-Failed" style="stroke:#0000FF;stroke-width:1.0;"/><polygon fill="#0000FF" points="172.99,439.5156,163.99,435.5156,167.99,439.5156,163.99,443.5156,172.99,439.5156" style="stroke:#0000FF;stroke-width:1.0;"/><text fill="#000000" font-family="Consolas" font-size="12" lengthAdjust="spacing" textLength="42" x="108.5" y="433.5039">cancel</text><!--MD5=[d4d7d25629e036e3232ad0960ebf72b6]
link Staged to Trial--><path d="M132.91,589.5756 C134.86,606.3556 139.5,630.9456 150.5,649.5156 C156.82,660.1856 166.22,669.8756 175.41,677.7556 " fill="none" id="Staged-to-Trial" style="stroke:#8B0000;stroke-width:1.0;stroke-dasharray:7.0,7.0;"/><polygon fill="#8B0000" points="179.33,681.0256,174.9929,672.1831,175.4947,677.8177,169.8602,678.3196,179.33,681.0256" style="stroke:#8B0000;stroke-width:1.0;"/><text fill="#000000" font-family="Consolas" font-size="12" lengthAdjust="spacing" textLength="42" x="163.5" y="632.8452">reboot</text><text fill="#000000" font-family="Lato" font-size="12" lengthAdjust="spacing" textLength="3" x="205.5" y="632.3531">:</text><text fill="#000000" font-family="Lato" font-size="12" font-style="italic" lengthAdjust="spacing" textLength="69" x="151.5" y="646.7452">install success</text><!--MD5=[6b849a9d54236769877241b12840d8d2]
reverse link Failed to Staged--><path d="M190.93,464.4556 C185.42,480.5056 177.23,501.8556 167.5,519.5156 C161.79,529.8656 154.19,540.5456 147.44,549.2756 " fill="none" id="Failed-backto-Staged" style="stroke:#8B0000;stroke-width:1.0;stroke-dasharray:7.0,7.0;"/><polygon fill="#8B0000" points="192.55,459.6556,185.883,466.9048,190.9517,464.3933,193.4633,469.462,192.55,459.6556" style="stroke:#8B0000;stroke-width:1.0;"/><text fill="#000000" font-family="Consolas" font-size="12" lengthAdjust="spacing" textLength="42" x="190" y="502.8452">reboot</text><text fill="#000000" font-family="Lato" font-size="12" lengthAdjust="spacing" textLength="3" x="232" y="502.3531">:</text><text fill="#000000" font-family="Lato" font-size="12" font-style="italic" lengthAdjust="spacing" textLength="60" x="182.5" y="516.7452">install failed</text><!--MD5=[6b849a9d54236769877241b12840d8d2]
reverse link Failed to Staged--><path d="M168.12,449.7756 C149.34,457.2456 126.74,469.8256 115.5,489.5156 C104.88,508.1056 112.67,532.6956 120.66,549.4656 " fill="none" id="Failed-backto-Staged-1" style="stroke:#8B0000;stroke-width:1.0;"/><polygon fill="#8B0000" points="172.81,447.9856,162.975,447.4629,168.1396,449.7709,165.8315,454.9355,172.81,447.9856" style="stroke:#8B0000;stroke-width:1.0;"/><text fill="#000000" font-family="Consolas" font-size="12" lengthAdjust="spacing" textLength="42" x="116.5" y="509.5039">reject</text><!--MD5=[4d415c9b773123c37ce42f12237de1fc]
link Trial to Updated--><path d="M204.5,719.5956 C204.5,738.9956 204.5,769.1256 204.5,790.2156 " fill="none" id="Trial-to-Updated" style="stroke:#8B0000;stroke-width:1.0;"/><polygon fill="#8B0000" points="204.5,795.3756,208.5,786.3756,204.5,790.3756,200.5,786.3756,204.5,795.3756" style="stroke:#8B0000;stroke-width:1.0;"/><text fill="#000000" font-family="Consolas" font-size="12" lengthAdjust="spacing" textLength="42" x="205.5" y="762.5039">accept</text><!--MD5=[71ab68107f7e180decc84935bd3705da]
reverse link Start to Failed--><path d="M139.23,232.5156 C150.63,264.4156 170.75,322.6956 184.5,373.5156 C188.63,388.7856 192.35,406.3256 194.91,419.3356 " fill="none" id="Start-backto-Failed" style="stroke:#0000FF;stroke-width:1.0;"/><polygon fill="#0000FF" points="137.47,227.6256,136.7338,237.4469,139.1535,232.3337,144.2667,234.7533,137.47,227.6256" style="stroke:#0000FF;stroke-width:1.0;"/><text fill="#000000" font-family="Consolas" font-size="12" lengthAdjust="spacing" textLength="35" x="177.5" y="328.5039">clean</text><!--MD5=[9ccf5bf65e01745813359ade091a38e1]
reverse link Rollback to Trial--><path d="M252.49,594.3956 C241.2,618.8956 223.85,656.5456 213.39,679.2256 " fill="none" id="Rollback-backto-Trial" style="stroke:#8B0000;stroke-width:1.0;"/><polygon fill="#8B0000" points="254.67,589.6756,247.2628,596.1666,252.572,594.2142,254.5244,599.5234,254.67,589.6756" style="stroke:#8B0000;stroke-width:1.0;"/><text fill="#000000" font-family="Consolas" font-size="12" lengthAdjust="spacing" textLength="42" x="240.5" y="639.5039">reject</text><!--MD5=[36f27b81716cb48e7733fa804b8af182]
reverse link Failed to Rollback--><path d="M228.72,453.0156 C243.9,461.0356 260.86,473.0556 269.5,489.5156 C279.28,508.1456 275.23,532.7256 270.38,549.4856 " fill="none" id="Failed-backto-Rollback" style="stroke:#8B0000;stroke-width:1.0;stroke-dasharray:7.0,7.0;"/><polygon fill="#8B0000" points="224.08,450.6556,230.2826,458.306,228.5349,452.9259,233.915,451.1782,224.08,450.6556" style="stroke:#8B0000;stroke-width:1.0;"/><text fill="#000000" font-family="Consolas" font-size="12" lengthAdjust="spacing" textLength="42" x="276.5" y="502.8452">reboot</text><text fill="#000000" font-family="Lato" font-size="12" lengthAdjust="spacing" textLength="3" x="318.5" y="502.3531">:</text><text fill="#000000" font-family="Lato" font-size="12" font-style="italic" lengthAdjust="spacing" textLength="39" x="279.5" y="516.7452">rollback</text><!--MD5=[91632b8e9666b14c55229d961249920f]
link Trial to Failed--><path d="M229.82,689.3356 C248.89,681.3256 274.54,668.0756 291.5,649.5156 C340.87,595.4856 372.29,549.6056 330.5,489.5156 C307.81,456.8856 260.69,445.9356 229.33,442.2956 " fill="none" id="Trial-to-Failed" style="stroke:#8B0000;stroke-width:1.0;stroke-dasharray:7.0,7.0;"/><polygon fill="#8B0000" points="224.06,441.7356,232.5867,446.6647,229.032,442.2643,233.4325,438.7096,224.06,441.7356" style="stroke:#8B0000;stroke-width:1.0;"/><text fill="#000000" font-family="Consolas" font-size="12" lengthAdjust="spacing" textLength="42" x="350.5" y="567.8452">reboot</text><text fill="#000000" font-family="Lato" font-size="12" lengthAdjust="spacing" textLength="3" x="392.5" y="567.3531">:</text><text fill="#000000" font-family="Lato" font-size="12" font-style="italic" lengthAdjust="spacing" textLength="39" x="353.5" y="581.7452">rollback</text><!--MD5=[43a8c4662c8a2715cf5aeba88f635b26]
link Updated to End--><path d="M204.5,835.5956 C204.5,854.9956 204.5,885.1256 204.5,906.2156 " fill="none" id="Updated-to-End" style="stroke:#0000FF;stroke-width:1.0;"/><polygon fill="#0000FF" points="204.5,911.3756,208.5,902.3756,204.5,906.3756,200.5,902.3756,204.5,911.3756" style="stroke:#0000FF;stroke-width:1.0;"/><text fill="#000000" font-family="Consolas" font-size="12" lengthAdjust="spacing" textLength="35" x="205.5" y="878.5039">clean</text></g></svg>