<?xml version="1.0" encoding="UTF-8" standalone="no"?><svg xmlns="http://www.w3.org/2000/svg" xmlns:xlink="http://www.w3.org/1999/xlink" contentScriptType="application/ecmascript" contentStyleType="text/css" height="682px" preserveAspectRatio="none" style="width:305px;height:682px;background:#FFFFFF;" version="1.1" viewBox="0 0 305 682" width="305px" zoomAndPan="magnify"><defs/><g><text fill="#000000" font-family="Lato" font-size="16" lengthAdjust="spacing" textLength="191" x="53.5" y="15.7833">FWU Firmware Store states</text><text fill="#000000" font-family="Lato" font-size="16" lengthAdjust="spacing" textLength="0" x="150.5" y="34.9728"/><text fill="#000000" font-family="Lato" font-size="16" font-style="italic" lengthAdjust="spacing" textLength="130" x="84" y="54.1622">Reboot required: yes</text><text fill="#000000" font-family="Lato" font-size="16" font-style="italic" lengthAdjust="spacing" textLength="125" x="86.5" y="73.3517">Testing required: no</text><text fill="#000000" font-family="Lato" font-size="16" lengthAdjust="spacing" textLength="0" x="150.5" y="92.5411"/><rect fill="#DDDDDD" height="38.7842" rx="5" ry="5" style="stroke:#000000;stroke-width:1.0;" width="281" x="8" y="103.9473"/><text fill="#000000" font-family="Consolas" font-size="12" lengthAdjust="spacing" textLength="7" x="14" y="121.2769">*</text><text fill="#000000" font-family="Lato" font-size="12" lengthAdjust="spacing" textLength="207" x="37" y="120.7848">Transient states that always transition at</text><text fill="#000000" font-family="Lato" font-size="12" font-weight="bold" lengthAdjust="spacing" textLength="37" x="246" y="120.7848">reboot</text><text fill="#000000" font-family="Consolas" font-size="12" lengthAdjust="spacing" textLength="21" x="14" y="135.6689">---</text><text fill="#000000" font-family="Lato" font-size="12" lengthAdjust="spacing" textLength="195" x="37" y="135.1768">dashed lines indicate a transition over</text><text fill="#000000" font-family="Lato" font-size="12" font-weight="bold" lengthAdjust="spacing" textLength="37" x="234" y="135.1768">reboot</text><rect fill="#FFFFFF" height="40" rx="12.5" ry="12.5" style="stroke:#000000;stroke-width:1.5;" width="50" x="141.75" y="158.7314"/><text fill="#000000" font-family="Lato" font-size="12" lengthAdjust="spacing" textLength="40" x="146.75" y="183.3729">READY</text><rect fill="#FFFFFF" height="40" rx="12.5" ry="12.5" style="stroke:#000000;stroke-width:1.5;" width="63" x="51.25" y="274.7314"/><text fill="#000000" font-family="Lato" font-size="12" lengthAdjust="spacing" textLength="53" x="56.25" y="299.3729">WRITING</text><rect fill="#FFFFFF" height="40" rx="12.5" ry="12.5" style="stroke:#000000;stroke-width:1.5;" width="63" x="51.25" y="390.7314"/><text fill="#000000" font-family="Lato" font-size="12" lengthAdjust="spacing" textLength="53" x="56.25" y="415.3729">STAGED *</text><rect fill="#FFFFFF" height="40" rx="12.5" ry="12.5" style="stroke:#000000;stroke-width:1.5;" width="51" x="211.25" y="390.7314"/><text fill="#000000" font-family="Lato" font-size="12" lengthAdjust="spacing" textLength="41" x="216.25" y="415.3729">FAILED</text><rect fill="#FFFFFF" height="40" rx="12.5" ry="12.5" style="stroke:#000000;stroke-width:1.5;" width="66" x="49.75" y="520.7314"/><text fill="#000000" font-family="Lato" font-size="12" lengthAdjust="spacing" textLength="56" x="54.75" y="545.3729">UPDATED</text><rect fill="#FFFFFF" height="40" rx="12.5" ry="12.5" style="stroke:#000000;stroke-width:1.5;" width="50" x="57.75" y="636.7314"/><text fill="#000000" font-family="Lato" font-size="12" lengthAdjust="spacing" textLength="40" x="62.75" y="661.3729">READY</text><!--MD5=[c97380125423de60894e9813730c5eee]
link Start to Staging--><path d="M152.69,198.8114 C138.15,218.5414 115.44,249.3614 99.87,270.4914 " fill="none" id="Start-to-Staging" style="stroke:#000000;stroke-width:1.0;"/><polygon fill="#000000" points="96.86,274.5914,105.4214,269.7229,99.8279,270.5676,98.9832,264.9742,96.86,274.5914" style="stroke:#000000;stroke-width:1.0;"/><text fill="#000000" font-family="Consolas" font-size="12" lengthAdjust="spacing" textLength="35" x="131.75" y="241.7197">start</text><!--MD5=[0b0aafcdfecf859159d0f59d797aa148]
link Staging to Staging--><path d="M114.57,284.4114 C132.58,282.4014 149.25,285.8414 149.25,294.7314 C149.25,302.7914 135.56,306.3714 119.58,305.4714 " fill="none" id="Staging-to-Staging" style="stroke:#000000;stroke-width:1.0;"/><polygon fill="#000000" points="114.57,305.0514,123.1944,309.8075,119.5516,305.4797,123.8795,301.8369,114.57,305.0514" style="stroke:#000000;stroke-width:1.0;"/><text fill="#000000" font-family="Consolas" font-size="12" lengthAdjust="spacing" textLength="35" x="155.25" y="299.7197">write</text><!--MD5=[0ad80e3ad2c5803190fd2274f9e1b6de]
link Staging to Staged--><path d="M82.75,314.8114 C82.75,334.2114 82.75,364.3414 82.75,385.4314 " fill="none" id="Staging-to-Staged" style="stroke:#000000;stroke-width:1.0;"/><polygon fill="#000000" points="82.75,390.5914,86.75,381.5914,82.75,385.5914,78.75,381.5914,82.75,390.5914" style="stroke:#000000;stroke-width:1.0;"/><text fill="#000000" font-family="Consolas" font-size="12" lengthAdjust="spacing" textLength="49" x="83.75" y="357.7197">install</text><!--MD5=[5385c45c5e18a6878cdeccd1eaad970d]
link Staging to Failed--><path d="M108.53,314.8114 C135.7,334.9314 178.46,366.5814 207.04,387.7314 " fill="none" id="Staging-to-Failed" style="stroke:#000000;stroke-width:1.0;"/><polygon fill="#000000" points="211.15,390.7814,206.296,382.2118,207.1312,387.8067,201.5363,388.6419,211.15,390.7814" style="stroke:#000000;stroke-width:1.0;"/><text fill="#000000" font-family="Consolas" font-size="12" lengthAdjust="spacing" textLength="42" x="170.75" y="357.7197">reject</text><!--MD5=[ffe6d1617caf564d97775b8dde2c381a]
link Staged to Updated--><path d="M82.75,430.8914 C82.75,453.4214 82.75,490.8414 82.75,515.4014 " fill="none" id="Staged-to-Updated" style="stroke:#000000;stroke-width:1.0;stroke-dasharray:7.0,7.0;"/><polygon fill="#000000" points="82.75,520.4414,86.75,511.4414,82.75,515.4414,78.75,511.4414,82.75,520.4414" style="stroke:#000000;stroke-width:1.0;"/><text fill="#000000" font-family="Consolas" font-size="12" lengthAdjust="spacing" textLength="42" x="95.75" y="474.061">reboot</text><text fill="#000000" font-family="Lato" font-size="12" lengthAdjust="spacing" textLength="3" x="137.75" y="473.5689">:</text><text fill="#000000" font-family="Lato" font-size="12" font-style="italic" lengthAdjust="spacing" textLength="69" x="83.75" y="487.961">install success</text><!--MD5=[a18353b5da68884bd2580cea4c9de7ab]
link Staged to Failed--><path d="M114.29,410.7314 C141.02,410.7314 179.13,410.7314 205.72,410.7314 " fill="none" id="Staged-to-Failed" style="stroke:#000000;stroke-width:1.0;stroke-dasharray:7.0,7.0;"/><polygon fill="#000000" points="210.87,410.7314,201.87,406.7314,205.87,410.7314,201.87,414.7314,210.87,410.7314" style="stroke:#000000;stroke-width:1.0;"/><text fill="#000000" font-family="Consolas" font-size="12" lengthAdjust="spacing" textLength="42" x="140.25" y="391.061">reboot</text><text fill="#000000" font-family="Lato" font-size="12" lengthAdjust="spacing" textLength="3" x="182.25" y="390.5689">:</text><text fill="#000000" font-family="Lato" font-size="12" font-style="italic" lengthAdjust="spacing" textLength="60" x="132.75" y="404.961">install failed</text><!--MD5=[a18353b5da68884bd2580cea4c9de7ab]
link Staged to Failed--><path d="M114.51,423.1314 C122.92,425.8614 132.07,428.3414 140.75,429.7314 C160.06,432.8114 165.49,433.1414 184.75,429.7314 C191.9,428.4614 199.36,426.2914 206.33,423.8514 " fill="none" id="Staged-to-Failed-1" style="stroke:#000000;stroke-width:1.0;"/><polygon fill="#000000" points="211.06,422.1314,201.2342,421.4575,206.3627,423.8447,203.9755,428.9732,211.06,422.1314" style="stroke:#000000;stroke-width:1.0;"/><text fill="#000000" font-family="Consolas" font-size="12" lengthAdjust="spacing" textLength="42" x="141.75" y="426.7197">reject</text><!--MD5=[71ab68107f7e180decc84935bd3705da]
reverse link Start to Failed--><path d="M175.55,203.7414 C187.07,235.6714 207.47,293.9614 221.75,344.7314 C226.05,360.0014 230.04,377.5414 232.83,390.5514 " fill="none" id="Start-backto-Failed" style="stroke:#000000;stroke-width:1.0;"/><polygon fill="#000000" points="173.78,198.8514,173.0797,208.6754,175.4807,203.5533,180.6027,205.9543,173.78,198.8514" style="stroke:#000000;stroke-width:1.0;"/><text fill="#000000" font-family="Consolas" font-size="12" lengthAdjust="spacing" textLength="35" x="213.75" y="299.7197">clean</text><!--MD5=[43a8c4662c8a2715cf5aeba88f635b26]
link Updated to End--><path d="M82.75,560.8114 C82.75,580.2114 82.75,610.3414 82.75,631.4314 " fill="none" id="Updated-to-End" style="stroke:#000000;stroke-width:1.0;"/><polygon fill="#000000" points="82.75,636.5914,86.75,627.5914,82.75,631.5914,78.75,627.5914,82.75,636.5914" style="stroke:#000000;stroke-width:1.0;"/><text fill="#000000" font-family="Consolas" font-size="12" lengthAdjust="spacing" textLength="35" x="83.75" y="603.7197">clean</text></g></svg>