<?xml version="1.0" encoding="UTF-8" standalone="no"?><svg xmlns="http://www.w3.org/2000/svg" xmlns:xlink="http://www.w3.org/1999/xlink" contentScriptType="application/ecmascript" contentStyleType="text/css" height="741px" preserveAspectRatio="none" style="width:332px;height:741px;background:#FFFFFF;" version="1.1" viewBox="0 0 332 741" width="332px" zoomAndPan="magnify"><defs/><g><text fill="#000000" font-family="Lato" font-size="16" lengthAdjust="spacing" textLength="191" x="64" y="15.7833">FWU Firmware Store states</text><text fill="#000000" font-family="Lato" font-size="16" lengthAdjust="spacing" textLength="0" x="161" y="34.9728"/><rect fill="#DDDDDD" height="38.7842" rx="5" ry="5" style="stroke:#000000;stroke-width:1.0;" width="281" x="18.5" y="46.3789"/><text fill="#000000" font-family="Consolas" font-size="12" lengthAdjust="spacing" textLength="7" x="24.5" y="63.7085">*</text><text fill="#000000" font-family="Lato" font-size="12" lengthAdjust="spacing" textLength="207" x="47.5" y="63.2164">Transient states that always transition at</text><text fill="#000000" font-family="Lato" font-size="12" font-weight="bold" lengthAdjust="spacing" textLength="37" x="256.5" y="63.2164">reboot</text><text fill="#000000" font-family="Consolas" font-size="12" lengthAdjust="spacing" textLength="21" x="24.5" y="78.1006">---</text><text fill="#000000" font-family="Lato" font-size="12" lengthAdjust="spacing" textLength="195" x="47.5" y="77.6085">dashed lines indicate a transition over</text><text fill="#000000" font-family="Lato" font-size="12" font-weight="bold" lengthAdjust="spacing" textLength="37" x="244.5" y="77.6085">reboot</text><rect fill="#FFFFFF" height="40" rx="12.5" ry="12.5" style="stroke:#000000;stroke-width:1.5;" width="50" x="186.5" y="101.1631"/><text fill="#000000" font-family="Lato" font-size="12" lengthAdjust="spacing" textLength="40" x="191.5" y="125.8045">READY</text><rect fill="#FFFFFF" height="40" rx="12.5" ry="12.5" style="stroke:#000000;stroke-width:1.5;" width="63" x="180" y="217.1631"/><text fill="#000000" font-family="Lato" font-size="12" lengthAdjust="spacing" textLength="53" x="185" y="241.8045">WRITING</text><rect fill="#FFFFFF" height="40" rx="12.5" ry="12.5" style="stroke:#000000;stroke-width:1.5;" width="63" x="180" y="333.1631"/><text fill="#000000" font-family="Lato" font-size="12" lengthAdjust="spacing" textLength="53" x="185" y="357.8045">STAGED *</text><rect fill="#FFFFFF" height="40" rx="12.5" ry="12.5" style="stroke:#000000;stroke-width:1.5;" width="51" x="7" y="333.1631"/><text fill="#000000" font-family="Lato" font-size="12" lengthAdjust="spacing" textLength="41" x="12" y="357.8045">FAILED</text><rect fill="#FFFFFF" height="40" rx="12.5" ry="12.5" style="stroke:#000000;stroke-width:1.5;" width="75" x="13" y="463.1631"/><text fill="#000000" font-family="Lato" font-size="12" lengthAdjust="spacing" textLength="65" x="18" y="487.8045">REJECTED *</text><rect fill="#FFFFFF" height="40" rx="12.5" ry="12.5" style="stroke:#000000;stroke-width:1.5;" width="50" x="173.5" y="463.1631"/><text fill="#000000" font-family="Lato" font-size="12" lengthAdjust="spacing" textLength="40" x="178.5" y="487.8045">TRIAL *</text><rect fill="#FFFFFF" height="40" rx="12.5" ry="12.5" style="stroke:#000000;stroke-width:1.5;" width="66" x="165.5" y="579.1631"/><text fill="#000000" font-family="Lato" font-size="12" lengthAdjust="spacing" textLength="56" x="170.5" y="603.8045">UPDATED</text><rect fill="#FFFFFF" height="40" rx="12.5" ry="12.5" style="stroke:#000000;stroke-width:1.5;" width="50" x="173.5" y="695.1631"/><text fill="#000000" font-family="Lato" font-size="12" lengthAdjust="spacing" textLength="40" x="178.5" y="719.8045">READY</text><!--MD5=[c97380125423de60894e9813730c5eee]
link Start to Staging--><path d="M210.06,141.2331 C209.45,150.2931 208.8,161.2831 208.5,171.1631 C208.09,184.7031 208.72,199.8131 209.51,212.0531 " fill="none" id="Start-to-Staging" style="stroke:#000000;stroke-width:1.0;"/><polygon fill="#000000" points="209.85,217.1131,213.2249,207.8605,209.5079,212.1248,205.2437,208.4078,209.85,217.1131" style="stroke:#000000;stroke-width:1.0;"/><text fill="#000000" font-family="Consolas" font-size="12" lengthAdjust="spacing" textLength="35" x="209.5" y="184.1514">start</text><!--MD5=[1ea6b70241ffbacf9da923b492f023ae]
link Staging to Start--><path d="M233.29,216.9531 C244.65,204.5131 255.13,187.6131 249.5,171.1631 C246.32,161.8831 240.59,153.0031 234.53,145.4131 " fill="none" id="Staging-to-Start" style="stroke:#000000;stroke-width:1.0;"/><polygon fill="#000000" points="231.14,141.3331,233.8253,150.8088,234.3395,145.1754,239.973,145.6896,231.14,141.3331" style="stroke:#000000;stroke-width:1.0;"/><text fill="#000000" font-family="Consolas" font-size="12" lengthAdjust="spacing" textLength="35" x="251.5" y="184.1514">erase</text><!--MD5=[0b0aafcdfecf859159d0f59d797aa148]
link Staging to Staging--><path d="M243.32,226.8431 C261.33,224.8331 278,228.2731 278,237.1631 C278,245.2231 264.31,248.8031 248.33,247.9031 " fill="none" id="Staging-to-Staging" style="stroke:#000000;stroke-width:1.0;"/><polygon fill="#000000" points="243.32,247.4831,251.9444,252.2392,248.3016,247.9113,252.6295,244.2686,243.32,247.4831" style="stroke:#000000;stroke-width:1.0;"/><text fill="#000000" font-family="Consolas" font-size="12" lengthAdjust="spacing" textLength="35" x="284" y="242.1514">write</text><!--MD5=[0ad80e3ad2c5803190fd2274f9e1b6de]
link Staging to Staged--><path d="M211.5,257.2431 C211.5,276.6431 211.5,306.7731 211.5,327.8631 " fill="none" id="Staging-to-Staged" style="stroke:#000000;stroke-width:1.0;"/><polygon fill="#000000" points="211.5,333.0231,215.5,324.0231,211.5,328.0231,207.5,324.0231,211.5,333.0231" style="stroke:#000000;stroke-width:1.0;"/><text fill="#000000" font-family="Consolas" font-size="12" lengthAdjust="spacing" textLength="49" x="212.5" y="300.1514">install</text><!--MD5=[d4d7d25629e036e3232ad0960ebf72b6]
link Staged to Trial--><path d="M209.55,373.3231 C207.27,395.8531 203.46,433.2731 200.97,457.8331 " fill="none" id="Staged-to-Trial" style="stroke:#000000;stroke-width:1.0;stroke-dasharray:7.0,7.0;"/><polygon fill="#000000" points="200.46,462.8731,205.3624,454.331,200.973,457.8995,197.4046,453.5102,200.46,462.8731" style="stroke:#000000;stroke-width:1.0;"/><text fill="#000000" font-family="Consolas" font-size="12" lengthAdjust="spacing" textLength="42" x="240.5" y="416.1514">reboot</text><text fill="#000000" font-family="Lato" font-size="12" font-style="italic" lengthAdjust="spacing" textLength="108" x="207.5" y="430.0514">installation succeeded</text><!--MD5=[6b849a9d54236769877241b12840d8d2]
reverse link Failed to Staged--><path d="M63.21,353.1631 C95.77,353.1631 146.95,353.1631 179.87,353.1631 " fill="none" id="Failed-backto-Staged" style="stroke:#000000;stroke-width:1.0;stroke-dasharray:7.0,7.0;"/><polygon fill="#000000" points="58.15,353.1631,67.15,357.1631,63.15,353.1631,67.15,349.1631,58.15,353.1631" style="stroke:#000000;stroke-width:1.0;"/><text fill="#000000" font-family="Consolas" font-size="12" lengthAdjust="spacing" textLength="42" x="98" y="333.1514">reboot</text><text fill="#000000" font-family="Lato" font-size="12" font-style="italic" lengthAdjust="spacing" textLength="85" x="76.5" y="347.0514">installation failed</text><!--MD5=[b5bb8622db00a26329c0a076d36e21c2]
link Staged to Start--><path d="M185.06,333.1531 C153.83,308.1731 108.16,262.1531 125.5,217.1631 C136.9,187.5831 162.26,161.4931 182.5,144.1831 " fill="none" id="Staged-to-Start" style="stroke:#000000;stroke-width:1.0;"/><polygon fill="#000000" points="186.47,140.8331,177.0052,143.5565,182.6406,144.048,182.1491,149.6835,186.47,140.8331" style="stroke:#000000;stroke-width:1.0;"/><text fill="#000000" font-family="Consolas" font-size="12" lengthAdjust="spacing" textLength="35" x="126.5" y="242.1514">erase</text><!--MD5=[4d415c9b773123c37ce42f12237de1fc]
link Trial to Updated--><path d="M198.5,503.2431 C198.5,522.6431 198.5,552.7731 198.5,573.8631 " fill="none" id="Trial-to-Updated" style="stroke:#000000;stroke-width:1.0;"/><polygon fill="#000000" points="198.5,579.0231,202.5,570.0231,198.5,574.0231,194.5,570.0231,198.5,579.0231" style="stroke:#000000;stroke-width:1.0;"/><text fill="#000000" font-family="Consolas" font-size="12" lengthAdjust="spacing" textLength="42" x="199.5" y="546.1514">accept</text><!--MD5=[ffc350981f942d9bd7c1701f06726d72]
link Failed to Start--><path d="M35.42,332.7331 C40.33,305.0231 52.28,253.4931 77.5,217.1631 C103.97,179.0231 150.96,150.9731 181.67,135.6031 " fill="none" id="Failed-to-Start" style="stroke:#000000;stroke-width:1.0;"/><polygon fill="#000000" points="186.45,133.2531,176.6082,133.6248,181.9608,135.4548,180.1309,140.8075,186.45,133.2531" style="stroke:#000000;stroke-width:1.0;"/><text fill="#000000" font-family="Consolas" font-size="12" lengthAdjust="spacing" textLength="35" x="78.5" y="242.1514">erase</text><!--MD5=[9ccf5bf65e01745813359ade091a38e1]
reverse link Rollback to Trial--><path d="M93.33,483.1631 C119.29,483.1631 151.51,483.1631 173.4,483.1631 " fill="none" id="Rollback-backto-Trial" style="stroke:#000000;stroke-width:1.0;"/><polygon fill="#000000" points="88.23,483.1631,97.23,487.1631,93.23,483.1631,97.23,479.1631,88.23,483.1631" style="stroke:#000000;stroke-width:1.0;"/><text fill="#000000" font-family="Consolas" font-size="12" lengthAdjust="spacing" textLength="42" x="109.75" y="477.1514">reject</text><!--MD5=[36f27b81716cb48e7733fa804b8af182]
reverse link Failed to Rollback--><path d="M32.81,378.5531 C33.31,394.2331 34.55,415.0031 37.5,433.1631 C39.11,443.0631 41.87,453.8631 44.42,462.8031 " fill="none" id="Failed-backto-Rollback" style="stroke:#000000;stroke-width:1.0;stroke-dasharray:7.0,7.0;"/><polygon fill="#000000" points="32.67,373.4331,28.9287,382.5437,32.8128,378.431,36.9254,382.3152,32.67,373.4331" style="stroke:#000000;stroke-width:1.0;"/><text fill="#000000" font-family="Consolas" font-size="12" lengthAdjust="spacing" textLength="42" x="38.5" y="416.1514">reboot</text><text fill="#000000" font-family="Lato" font-size="12" font-style="italic" lengthAdjust="spacing" textLength="39" x="40" y="430.0514">rollback</text><!--MD5=[91632b8e9666b14c55229d961249920f]
link Trial to Failed--><path d="M173.75,463.0831 C143.76,439.9531 93.31,401.0531 61.52,376.5331 " fill="none" id="Trial-to-Failed" style="stroke:#000000;stroke-width:1.0;stroke-dasharray:7.0,7.0;"/><polygon fill="#000000" points="57.35,373.3231,62.0267,381.9908,61.3067,376.3799,66.9176,375.66,57.35,373.3231" style="stroke:#000000;stroke-width:1.0;"/><text fill="#000000" font-family="Consolas" font-size="12" lengthAdjust="spacing" textLength="42" x="131.5" y="416.1514">reboot</text><text fill="#000000" font-family="Lato" font-size="12" font-style="italic" lengthAdjust="spacing" textLength="39" x="133" y="430.0514">rollback</text><!--MD5=[43a8c4662c8a2715cf5aeba88f635b26]
link Updated to End--><path d="M198.5,619.2431 C198.5,638.6431 198.5,668.7731 198.5,689.8631 " fill="none" id="Updated-to-End" style="stroke:#000000;stroke-width:1.0;"/><polygon fill="#000000" points="198.5,695.0231,202.5,686.0231,198.5,690.0231,194.5,686.0231,198.5,695.0231" style="stroke:#000000;stroke-width:1.0;"/><text fill="#000000" font-family="Consolas" font-size="12" lengthAdjust="spacing" textLength="35" x="199.5" y="662.1514">erase</text></g></svg>