<?xml version="1.0" encoding="UTF-8" standalone="no"?><svg xmlns="http://www.w3.org/2000/svg" xmlns:xlink="http://www.w3.org/1999/xlink" contentScriptType="application/ecmascript" contentStyleType="text/css" height="682px" preserveAspectRatio="none" style="width:332px;height:682px;background:#FFFFFF;" version="1.1" viewBox="0 0 332 682" width="332px" zoomAndPan="magnify"><defs/><g><text fill="#000000" font-family="Lato" font-size="16" lengthAdjust="spacing" textLength="191" x="64" y="15.7833">FWU Firmware Store states</text><text fill="#000000" font-family="Lato" font-size="16" lengthAdjust="spacing" textLength="0" x="161" y="34.9728"/><text fill="#000000" font-family="Lato" font-size="16" font-style="italic" lengthAdjust="spacing" textLength="130" x="94.5" y="54.1622">Reboot required: yes</text><text fill="#000000" font-family="Lato" font-size="16" font-style="italic" lengthAdjust="spacing" textLength="125" x="97" y="73.3517">Testing required: no</text><text fill="#000000" font-family="Lato" font-size="16" lengthAdjust="spacing" textLength="0" x="161" y="92.5411"/><rect fill="#DDDDDD" height="38.7842" rx="5" ry="5" style="stroke:#000000;stroke-width:1.0;" width="281" x="18.5" y="103.9473"/><text fill="#000000" font-family="Consolas" font-size="12" lengthAdjust="spacing" textLength="7" x="24.5" y="121.2769">*</text><text fill="#000000" font-family="Lato" font-size="12" lengthAdjust="spacing" textLength="207" x="47.5" y="120.7848">Transient states that always transition at</text><text fill="#000000" font-family="Lato" font-size="12" font-weight="bold" lengthAdjust="spacing" textLength="37" x="256.5" y="120.7848">reboot</text><text fill="#000000" font-family="Consolas" font-size="12" lengthAdjust="spacing" textLength="21" x="24.5" y="135.6689">---</text><text fill="#000000" font-family="Lato" font-size="12" lengthAdjust="spacing" textLength="195" x="47.5" y="135.1768">dashed lines indicate a transition over</text><text fill="#000000" font-family="Lato" font-size="12" font-weight="bold" lengthAdjust="spacing" textLength="37" x="244.5" y="135.1768">reboot</text><rect fill="#FFFFFF" height="40" rx="12.5" ry="12.5" style="stroke:#000000;stroke-width:1.5;" width="50" x="186.5" y="158.7314"/><text fill="#000000" font-family="Lato" font-size="12" lengthAdjust="spacing" textLength="40" x="191.5" y="183.3729">READY</text><rect fill="#FFFFFF" height="40" rx="12.5" ry="12.5" style="stroke:#000000;stroke-width:1.5;" width="63" x="180" y="274.7314"/><text fill="#000000" font-family="Lato" font-size="12" lengthAdjust="spacing" textLength="53" x="185" y="299.3729">WRITING</text><rect fill="#FFFFFF" height="40" rx="12.5" ry="12.5" style="stroke:#000000;stroke-width:1.5;" width="63" x="180" y="390.7314"/><text fill="#000000" font-family="Lato" font-size="12" lengthAdjust="spacing" textLength="53" x="185" y="415.3729">STAGED *</text><rect fill="#FFFFFF" height="40" rx="12.5" ry="12.5" style="stroke:#000000;stroke-width:1.5;" width="51" x="7" y="390.7314"/><text fill="#000000" font-family="Lato" font-size="12" lengthAdjust="spacing" textLength="41" x="12" y="415.3729">FAILED</text><rect fill="#FFFFFF" height="40" rx="12.5" ry="12.5" style="stroke:#000000;stroke-width:1.5;" width="66" x="178.5" y="520.7314"/><text fill="#000000" font-family="Lato" font-size="12" lengthAdjust="spacing" textLength="56" x="183.5" y="545.3729">UPDATED</text><rect fill="#FFFFFF" height="40" rx="12.5" ry="12.5" style="stroke:#000000;stroke-width:1.5;" width="50" x="186.5" y="636.7314"/><text fill="#000000" font-family="Lato" font-size="12" lengthAdjust="spacing" textLength="40" x="191.5" y="661.3729">READY</text><!--MD5=[c97380125423de60894e9813730c5eee]
link Start to Staging--><path d="M210.06,198.8014 C209.45,207.8614 208.8,218.8514 208.5,228.7314 C208.09,242.2714 208.72,257.3814 209.51,269.6214 " fill="none" id="Start-to-Staging" style="stroke:#000000;stroke-width:1.0;"/><polygon fill="#000000" points="209.85,274.6814,213.2249,265.4289,209.5079,269.6932,205.2437,265.9762,209.85,274.6814" style="stroke:#000000;stroke-width:1.0;"/><text fill="#000000" font-family="Consolas" font-size="12" lengthAdjust="spacing" textLength="35" x="209.5" y="241.7197">start</text><!--MD5=[1ea6b70241ffbacf9da923b492f023ae]
link Staging to Start--><path d="M233.29,274.5214 C244.65,262.0814 255.13,245.1814 249.5,228.7314 C246.32,219.4514 240.59,210.5714 234.53,202.9814 " fill="none" id="Staging-to-Start" style="stroke:#000000;stroke-width:1.0;"/><polygon fill="#000000" points="231.14,198.9014,233.8253,208.3772,234.3395,202.7437,239.973,203.2579,231.14,198.9014" style="stroke:#000000;stroke-width:1.0;"/><text fill="#000000" font-family="Consolas" font-size="12" lengthAdjust="spacing" textLength="35" x="251.5" y="241.7197">clean</text><!--MD5=[0b0aafcdfecf859159d0f59d797aa148]
link Staging to Staging--><path d="M243.32,284.4114 C261.33,282.4014 278,285.8414 278,294.7314 C278,302.7914 264.31,306.3714 248.33,305.4714 " fill="none" id="Staging-to-Staging" style="stroke:#000000;stroke-width:1.0;"/><polygon fill="#000000" points="243.32,305.0514,251.9444,309.8075,248.3016,305.4797,252.6295,301.8369,243.32,305.0514" style="stroke:#000000;stroke-width:1.0;"/><text fill="#000000" font-family="Consolas" font-size="12" lengthAdjust="spacing" textLength="35" x="284" y="299.7197">write</text><!--MD5=[0ad80e3ad2c5803190fd2274f9e1b6de]
link Staging to Staged--><path d="M211.5,314.8114 C211.5,334.2114 211.5,364.3414 211.5,385.4314 " fill="none" id="Staging-to-Staged" style="stroke:#000000;stroke-width:1.0;"/><polygon fill="#000000" points="211.5,390.5914,215.5,381.5914,211.5,385.5914,207.5,381.5914,211.5,390.5914" style="stroke:#000000;stroke-width:1.0;"/><text fill="#000000" font-family="Consolas" font-size="12" lengthAdjust="spacing" textLength="49" x="212.5" y="357.7197">install</text><!--MD5=[ffe6d1617caf564d97775b8dde2c381a]
link Staged to Updated--><path d="M211.5,430.8914 C211.5,453.4214 211.5,490.8414 211.5,515.4014 " fill="none" id="Staged-to-Updated" style="stroke:#000000;stroke-width:1.0;stroke-dasharray:7.0,7.0;"/><polygon fill="#000000" points="211.5,520.4414,215.5,511.4414,211.5,515.4414,207.5,511.4414,211.5,520.4414" style="stroke:#000000;stroke-width:1.0;"/><text fill="#000000" font-family="Consolas" font-size="12" lengthAdjust="spacing" textLength="42" x="245.5" y="473.7197">reboot</text><text fill="#000000" font-family="Lato" font-size="12" font-style="italic" lengthAdjust="spacing" textLength="108" x="212.5" y="487.6197">installation succeeded</text><!--MD5=[6b849a9d54236769877241b12840d8d2]
reverse link Failed to Staged--><path d="M63.21,410.7314 C95.77,410.7314 146.95,410.7314 179.87,410.7314 " fill="none" id="Failed-backto-Staged" style="stroke:#000000;stroke-width:1.0;stroke-dasharray:7.0,7.0;"/><polygon fill="#000000" points="58.15,410.7314,67.15,414.7314,63.15,410.7314,67.15,406.7314,58.15,410.7314" style="stroke:#000000;stroke-width:1.0;"/><text fill="#000000" font-family="Consolas" font-size="12" lengthAdjust="spacing" textLength="42" x="98" y="390.7197">reboot</text><text fill="#000000" font-family="Lato" font-size="12" font-style="italic" lengthAdjust="spacing" textLength="85" x="76.5" y="404.6197">installation failed</text><!--MD5=[b5bb8622db00a26329c0a076d36e21c2]
link Staged to Start--><path d="M186.06,390.7114 C165.33,373.5014 137.58,346.0814 125.5,314.7314 C108.67,271.0514 151.22,226.4114 182.29,200.9814 " fill="none" id="Staged-to-Start" style="stroke:#000000;stroke-width:1.0;"/><polygon fill="#000000" points="186.4,197.6714,176.8768,200.183,182.4998,200.8001,181.8827,206.4232,186.4,197.6714" style="stroke:#000000;stroke-width:1.0;"/><text fill="#000000" font-family="Consolas" font-size="12" lengthAdjust="spacing" textLength="35" x="126.5" y="299.7197">clean</text><!--MD5=[ffc350981f942d9bd7c1701f06726d72]
link Failed to Start--><path d="M35.55,390.3914 C40.62,362.7914 52.77,311.3914 77.5,274.7314 C103.46,236.2514 150.59,208.2914 181.47,193.0414 " fill="none" id="Failed-to-Start" style="stroke:#000000;stroke-width:1.0;"/><polygon fill="#000000" points="186.28,190.7014,176.4368,191.0355,181.7825,192.886,179.932,198.2316,186.28,190.7014" style="stroke:#000000;stroke-width:1.0;"/><text fill="#000000" font-family="Consolas" font-size="12" lengthAdjust="spacing" textLength="35" x="78.5" y="299.7197">clean</text><!--MD5=[43a8c4662c8a2715cf5aeba88f635b26]
link Updated to End--><path d="M211.5,560.8114 C211.5,580.2114 211.5,610.3414 211.5,631.4314 " fill="none" id="Updated-to-End" style="stroke:#000000;stroke-width:1.0;"/><polygon fill="#000000" points="211.5,636.5914,215.5,627.5914,211.5,631.5914,207.5,627.5914,211.5,636.5914" style="stroke:#000000;stroke-width:1.0;"/><text fill="#000000" font-family="Consolas" font-size="12" lengthAdjust="spacing" textLength="35" x="212.5" y="603.7197">clean</text></g></svg>