<?xml version="1.0" encoding="UTF-8" standalone="no"?><svg xmlns="http://www.w3.org/2000/svg" xmlns:xlink="http://www.w3.org/1999/xlink" contentScriptType="application/ecmascript" contentStyleType="text/css" height="510px" preserveAspectRatio="none" style="width:200px;height:510px;background:#FFFFFF;" version="1.1" viewBox="0 0 200 510" width="200px" zoomAndPan="magnify"><defs/><g><text fill="#000000" font-family="Lato" font-size="16" lengthAdjust="spacing" textLength="191" x="2" y="15.7833">FWU Firmware Store states</text><text fill="#000000" font-family="Lato" font-size="16" lengthAdjust="spacing" textLength="0" x="99" y="34.9728"/><text fill="#000000" font-family="Lato" font-size="16" font-style="italic" lengthAdjust="spacing" textLength="125" x="35" y="54.1622">Reboot required: no</text><text fill="#000000" font-family="Lato" font-size="16" font-style="italic" lengthAdjust="spacing" textLength="125" x="35" y="73.3517">Testing required: no</text><text fill="#000000" font-family="Lato" font-size="16" lengthAdjust="spacing" textLength="0" x="99" y="92.5411"/><rect fill="#FFFFFF" height="40" rx="12.5" ry="12.5" style="stroke:#000000;stroke-width:1.5;" width="50" x="38.75" y="102.9473"/><text fill="#000000" font-family="Lato" font-size="12" lengthAdjust="spacing" textLength="40" x="43.75" y="127.5887">READY</text><rect fill="#FFFFFF" height="40" rx="12.5" ry="12.5" style="stroke:#000000;stroke-width:1.5;" width="63" x="32.25" y="218.9473"/><text fill="#000000" font-family="Lato" font-size="12" lengthAdjust="spacing" textLength="53" x="37.25" y="243.5887">WRITING</text><rect fill="#FFFFFF" height="40" rx="12.5" ry="12.5" style="stroke:#000000;stroke-width:1.5;" width="66" x="30.75" y="348.9473"/><text fill="#000000" font-family="Lato" font-size="12" lengthAdjust="spacing" textLength="56" x="35.75" y="373.5887">UPDATED</text><rect fill="#FFFFFF" height="40" rx="12.5" ry="12.5" style="stroke:#000000;stroke-width:1.5;" width="50" x="38.75" y="464.9473"/><text fill="#000000" font-family="Lato" font-size="12" lengthAdjust="spacing" textLength="40" x="43.75" y="489.5887">READY</text><!--MD5=[c97380125423de60894e9813730c5eee]
link Start to Staging--><path d="M62.31,143.0173 C61.7,152.0773 61.05,163.0673 60.75,172.9473 C60.34,186.4873 60.97,201.5973 61.76,213.8373 " fill="none" id="Start-to-Staging" style="stroke:#000000;stroke-width:1.0;"/><polygon fill="#000000" points="62.1,218.8973,65.4749,209.6447,61.7579,213.909,57.4937,210.192,62.1,218.8973" style="stroke:#000000;stroke-width:1.0;"/><text fill="#000000" font-family="Consolas" font-size="12" lengthAdjust="spacing" textLength="35" x="61.75" y="185.9355">start</text><!--MD5=[1ea6b70241ffbacf9da923b492f023ae]
link Staging to Start--><path d="M85.54,218.7373 C96.9,206.2973 107.38,189.3973 101.75,172.9473 C98.57,163.6673 92.84,154.7873 86.78,147.1973 " fill="none" id="Staging-to-Start" style="stroke:#000000;stroke-width:1.0;"/><polygon fill="#000000" points="83.39,143.1173,86.0753,152.593,86.5895,146.9595,92.223,147.4738,83.39,143.1173" style="stroke:#000000;stroke-width:1.0;"/><text fill="#000000" font-family="Consolas" font-size="12" lengthAdjust="spacing" textLength="35" x="103.75" y="185.9355">clean</text><!--MD5=[0b0aafcdfecf859159d0f59d797aa148]
link Staging to Staging--><path d="M95.57,228.6273 C113.58,226.6173 130.25,230.0573 130.25,238.9473 C130.25,247.0073 116.56,250.5873 100.58,249.6873 " fill="none" id="Staging-to-Staging" style="stroke:#000000;stroke-width:1.0;"/><polygon fill="#000000" points="95.57,249.2673,104.1944,254.0234,100.5516,249.6955,104.8795,246.0528,95.57,249.2673" style="stroke:#000000;stroke-width:1.0;"/><text fill="#000000" font-family="Consolas" font-size="12" lengthAdjust="spacing" textLength="35" x="136.25" y="243.9355">write</text><!--MD5=[f298e22b3055f34467490e2d2ed3b65a]
link Staging to Updated--><path d="M63.75,259.1073 C63.75,281.6373 63.75,319.0573 63.75,343.6173 " fill="none" id="Staging-to-Updated" style="stroke:#000000;stroke-width:1.0;"/><polygon fill="#000000" points="63.75,348.6573,67.75,339.6573,63.75,343.6573,59.75,339.6573,63.75,348.6573" style="stroke:#000000;stroke-width:1.0;"/><text fill="#000000" font-family="Consolas" font-size="12" lengthAdjust="spacing" textLength="49" x="94.25" y="301.9355">install</text><text fill="#000000" font-family="Lato" font-size="12" font-style="italic" lengthAdjust="spacing" textLength="108" x="64.75" y="315.8355">installation succeeded</text><!--MD5=[43a8c4662c8a2715cf5aeba88f635b26]
link Updated to End--><path d="M63.75,389.0273 C63.75,408.4273 63.75,438.5573 63.75,459.6473 " fill="none" id="Updated-to-End" style="stroke:#000000;stroke-width:1.0;"/><polygon fill="#000000" points="63.75,464.8073,67.75,455.8073,63.75,459.8073,59.75,455.8073,63.75,464.8073" style="stroke:#000000;stroke-width:1.0;"/><text fill="#000000" font-family="Consolas" font-size="12" lengthAdjust="spacing" textLength="35" x="64.75" y="431.9355">clean</text></g></svg>