<?xml version="1.0" encoding="UTF-8" standalone="no"?><svg xmlns="http://www.w3.org/2000/svg" xmlns:xlink="http://www.w3.org/1999/xlink" contentScriptType="application/ecmascript" contentStyleType="text/css" height="798px" preserveAspectRatio="none" style="width:332px;height:798px;background:#FFFFFF;" version="1.1" viewBox="0 0 332 798" width="332px" zoomAndPan="magnify"><defs/><g><text fill="#000000" font-family="Lato" font-size="16" lengthAdjust="spacing" textLength="191" x="64" y="15.7833">FWU Firmware Store states</text><text fill="#000000" font-family="Lato" font-size="16" lengthAdjust="spacing" textLength="0" x="161" y="34.9728"/><text fill="#000000" font-family="Lato" font-size="16" font-style="italic" lengthAdjust="spacing" textLength="130" x="94.5" y="54.1622">Reboot required: yes</text><text fill="#000000" font-family="Lato" font-size="16" font-style="italic" lengthAdjust="spacing" textLength="130" x="94.5" y="73.3517">Testing required: yes</text><text fill="#000000" font-family="Lato" font-size="16" lengthAdjust="spacing" textLength="0" x="161" y="92.5411"/><rect fill="#DDDDDD" height="38.7842" rx="5" ry="5" style="stroke:#000000;stroke-width:1.0;" width="281" x="18.5" y="103.9473"/><text fill="#000000" font-family="Consolas" font-size="12" lengthAdjust="spacing" textLength="7" x="24.5" y="121.2769">*</text><text fill="#000000" font-family="Lato" font-size="12" lengthAdjust="spacing" textLength="207" x="47.5" y="120.7848">Transient states that always transition at</text><text fill="#000000" font-family="Lato" font-size="12" font-weight="bold" lengthAdjust="spacing" textLength="37" x="256.5" y="120.7848">reboot</text><text fill="#000000" font-family="Consolas" font-size="12" lengthAdjust="spacing" textLength="21" x="24.5" y="135.6689">---</text><text fill="#000000" font-family="Lato" font-size="12" lengthAdjust="spacing" textLength="195" x="47.5" y="135.1768">dashed lines indicate a transition over</text><text fill="#000000" font-family="Lato" font-size="12" font-weight="bold" lengthAdjust="spacing" textLength="37" x="244.5" y="135.1768">reboot</text><rect fill="#FFFFFF" height="40" rx="12.5" ry="12.5" style="stroke:#000000;stroke-width:1.5;" width="50" x="186.5" y="158.7314"/><text fill="#000000" font-family="Lato" font-size="12" lengthAdjust="spacing" textLength="40" x="191.5" y="183.3729">READY</text><rect fill="#FFFFFF" height="40" rx="12.5" ry="12.5" style="stroke:#000000;stroke-width:1.5;" width="63" x="180" y="274.7314"/><text fill="#000000" font-family="Lato" font-size="12" lengthAdjust="spacing" textLength="53" x="185" y="299.3729">WRITING</text><rect fill="#FFFFFF" height="40" rx="12.5" ry="12.5" style="stroke:#000000;stroke-width:1.5;" width="63" x="180" y="390.7314"/><text fill="#000000" font-family="Lato" font-size="12" lengthAdjust="spacing" textLength="53" x="185" y="415.3729">STAGED *</text><rect fill="#FFFFFF" height="40" rx="12.5" ry="12.5" style="stroke:#000000;stroke-width:1.5;" width="51" x="7" y="390.7314"/><text fill="#000000" font-family="Lato" font-size="12" lengthAdjust="spacing" textLength="41" x="12" y="415.3729">FAILED</text><rect fill="#FFFFFF" height="40" rx="12.5" ry="12.5" style="stroke:#000000;stroke-width:1.5;" width="75" x="13" y="520.7314"/><text fill="#000000" font-family="Lato" font-size="12" lengthAdjust="spacing" textLength="65" x="18" y="545.3729">REJECTED *</text><rect fill="#FFFFFF" height="40" rx="12.5" ry="12.5" style="stroke:#000000;stroke-width:1.5;" width="50" x="173.5" y="520.7314"/><text fill="#000000" font-family="Lato" font-size="12" lengthAdjust="spacing" textLength="40" x="178.5" y="545.3729">TRIAL *</text><rect fill="#FFFFFF" height="40" rx="12.5" ry="12.5" style="stroke:#000000;stroke-width:1.5;" width="66" x="165.5" y="636.7314"/><text fill="#000000" font-family="Lato" font-size="12" lengthAdjust="spacing" textLength="56" x="170.5" y="661.3729">UPDATED</text><rect fill="#FFFFFF" height="40" rx="12.5" ry="12.5" style="stroke:#000000;stroke-width:1.5;" width="50" x="173.5" y="752.7314"/><text fill="#000000" font-family="Lato" font-size="12" lengthAdjust="spacing" textLength="40" x="178.5" y="777.3729">READY</text><!--MD5=[c97380125423de60894e9813730c5eee]
link Start to Staging--><path d="M210.06,198.8014 C209.45,207.8614 208.8,218.8514 208.5,228.7314 C208.09,242.2714 208.72,257.3814 209.51,269.6214 " fill="none" id="Start-to-Staging" style="stroke:#000000;stroke-width:1.0;"/><polygon fill="#000000" points="209.85,274.6814,213.2249,265.4289,209.5079,269.6932,205.2437,265.9762,209.85,274.6814" style="stroke:#000000;stroke-width:1.0;"/><text fill="#000000" font-family="Consolas" font-size="12" lengthAdjust="spacing" textLength="35" x="209.5" y="241.7197">start</text><!--MD5=[1ea6b70241ffbacf9da923b492f023ae]
link Staging to Start--><path d="M233.29,274.5214 C244.65,262.0814 255.13,245.1814 249.5,228.7314 C246.32,219.4514 240.59,210.5714 234.53,202.9814 " fill="none" id="Staging-to-Start" style="stroke:#000000;stroke-width:1.0;"/><polygon fill="#000000" points="231.14,198.9014,233.8253,208.3772,234.3395,202.7437,239.973,203.2579,231.14,198.9014" style="stroke:#000000;stroke-width:1.0;"/><text fill="#000000" font-family="Consolas" font-size="12" lengthAdjust="spacing" textLength="35" x="251.5" y="241.7197">clean</text><!--MD5=[0b0aafcdfecf859159d0f59d797aa148]
link Staging to Staging--><path d="M243.32,284.4114 C261.33,282.4014 278,285.8414 278,294.7314 C278,302.7914 264.31,306.3714 248.33,305.4714 " fill="none" id="Staging-to-Staging" style="stroke:#000000;stroke-width:1.0;"/><polygon fill="#000000" points="243.32,305.0514,251.9444,309.8075,248.3016,305.4797,252.6295,301.8369,243.32,305.0514" style="stroke:#000000;stroke-width:1.0;"/><text fill="#000000" font-family="Consolas" font-size="12" lengthAdjust="spacing" textLength="35" x="284" y="299.7197">write</text><!--MD5=[0ad80e3ad2c5803190fd2274f9e1b6de]
link Staging to Staged--><path d="M211.5,314.8114 C211.5,334.2114 211.5,364.3414 211.5,385.4314 " fill="none" id="Staging-to-Staged" style="stroke:#000000;stroke-width:1.0;"/><polygon fill="#000000" points="211.5,390.5914,215.5,381.5914,211.5,385.5914,207.5,381.5914,211.5,390.5914" style="stroke:#000000;stroke-width:1.0;"/><text fill="#000000" font-family="Consolas" font-size="12" lengthAdjust="spacing" textLength="49" x="212.5" y="357.7197">install</text><!--MD5=[d4d7d25629e036e3232ad0960ebf72b6]
link Staged to Trial--><path d="M209.55,430.8914 C207.27,453.4214 203.46,490.8414 200.97,515.4014 " fill="none" id="Staged-to-Trial" style="stroke:#000000;stroke-width:1.0;stroke-dasharray:7.0,7.0;"/><polygon fill="#000000" points="200.46,520.4414,205.3624,511.8994,200.973,515.4678,197.4046,511.0785,200.46,520.4414" style="stroke:#000000;stroke-width:1.0;"/><text fill="#000000" font-family="Consolas" font-size="12" lengthAdjust="spacing" textLength="42" x="240.5" y="473.7197">reboot</text><text fill="#000000" font-family="Lato" font-size="12" font-style="italic" lengthAdjust="spacing" textLength="108" x="207.5" y="487.6197">installation succeeded</text><!--MD5=[6b849a9d54236769877241b12840d8d2]
reverse link Failed to Staged--><path d="M63.21,410.7314 C95.77,410.7314 146.95,410.7314 179.87,410.7314 " fill="none" id="Failed-backto-Staged" style="stroke:#000000;stroke-width:1.0;stroke-dasharray:7.0,7.0;"/><polygon fill="#000000" points="58.15,410.7314,67.15,414.7314,63.15,410.7314,67.15,406.7314,58.15,410.7314" style="stroke:#000000;stroke-width:1.0;"/><text fill="#000000" font-family="Consolas" font-size="12" lengthAdjust="spacing" textLength="42" x="98" y="390.7197">reboot</text><text fill="#000000" font-family="Lato" font-size="12" font-style="italic" lengthAdjust="spacing" textLength="85" x="76.5" y="404.6197">installation failed</text><!--MD5=[b5bb8622db00a26329c0a076d36e21c2]
link Staged to Start--><path d="M185.06,390.7214 C153.83,365.7414 108.16,319.7214 125.5,274.7314 C136.9,245.1514 162.26,219.0614 182.5,201.7514 " fill="none" id="Staged-to-Start" style="stroke:#000000;stroke-width:1.0;"/><polygon fill="#000000" points="186.47,198.4014,177.0052,201.1249,182.6406,201.6164,182.1491,207.2519,186.47,198.4014" style="stroke:#000000;stroke-width:1.0;"/><text fill="#000000" font-family="Consolas" font-size="12" lengthAdjust="spacing" textLength="35" x="126.5" y="299.7197">clean</text><!--MD5=[4d415c9b773123c37ce42f12237de1fc]
link Trial to Updated--><path d="M198.5,560.8114 C198.5,580.2114 198.5,610.3414 198.5,631.4314 " fill="none" id="Trial-to-Updated" style="stroke:#000000;stroke-width:1.0;"/><polygon fill="#000000" points="198.5,636.5914,202.5,627.5914,198.5,631.5914,194.5,627.5914,198.5,636.5914" style="stroke:#000000;stroke-width:1.0;"/><text fill="#000000" font-family="Consolas" font-size="12" lengthAdjust="spacing" textLength="42" x="199.5" y="603.7197">accept</text><!--MD5=[ffc350981f942d9bd7c1701f06726d72]
link Failed to Start--><path d="M35.42,390.3014 C40.33,362.5914 52.28,311.0614 77.5,274.7314 C103.97,236.5914 150.96,208.5414 181.67,193.1714 " fill="none" id="Failed-to-Start" style="stroke:#000000;stroke-width:1.0;"/><polygon fill="#000000" points="186.45,190.8214,176.6082,191.1932,181.9608,193.0231,180.1309,198.3758,186.45,190.8214" style="stroke:#000000;stroke-width:1.0;"/><text fill="#000000" font-family="Consolas" font-size="12" lengthAdjust="spacing" textLength="35" x="78.5" y="299.7197">clean</text><!--MD5=[9ccf5bf65e01745813359ade091a38e1]
reverse link Rollback to Trial--><path d="M93.33,540.7314 C119.29,540.7314 151.51,540.7314 173.4,540.7314 " fill="none" id="Rollback-backto-Trial" style="stroke:#000000;stroke-width:1.0;"/><polygon fill="#000000" points="88.23,540.7314,97.23,544.7314,93.23,540.7314,97.23,536.7314,88.23,540.7314" style="stroke:#000000;stroke-width:1.0;"/><text fill="#000000" font-family="Consolas" font-size="12" lengthAdjust="spacing" textLength="42" x="109.75" y="534.7197">reject</text><!--MD5=[36f27b81716cb48e7733fa804b8af182]
reverse link Failed to Rollback--><path d="M32.81,436.1214 C33.31,451.8014 34.55,472.5714 37.5,490.7314 C39.11,500.6314 41.87,511.4314 44.42,520.3714 " fill="none" id="Failed-backto-Rollback" style="stroke:#000000;stroke-width:1.0;stroke-dasharray:7.0,7.0;"/><polygon fill="#000000" points="32.67,431.0014,28.9287,440.112,32.8128,435.9994,36.9254,439.8835,32.67,431.0014" style="stroke:#000000;stroke-width:1.0;"/><text fill="#000000" font-family="Consolas" font-size="12" lengthAdjust="spacing" textLength="42" x="38.5" y="473.7197">reboot</text><text fill="#000000" font-family="Lato" font-size="12" font-style="italic" lengthAdjust="spacing" textLength="39" x="40" y="487.6197">rollback</text><!--MD5=[91632b8e9666b14c55229d961249920f]
link Trial to Failed--><path d="M173.75,520.6514 C143.76,497.5214 93.31,458.6214 61.52,434.1014 " fill="none" id="Trial-to-Failed" style="stroke:#000000;stroke-width:1.0;stroke-dasharray:7.0,7.0;"/><polygon fill="#000000" points="57.35,430.8914,62.0267,439.5591,61.3067,433.9483,66.9176,433.2283,57.35,430.8914" style="stroke:#000000;stroke-width:1.0;"/><text fill="#000000" font-family="Consolas" font-size="12" lengthAdjust="spacing" textLength="42" x="131.5" y="473.7197">reboot</text><text fill="#000000" font-family="Lato" font-size="12" font-style="italic" lengthAdjust="spacing" textLength="39" x="133" y="487.6197">rollback</text><!--MD5=[43a8c4662c8a2715cf5aeba88f635b26]
link Updated to End--><path d="M198.5,676.8114 C198.5,696.2114 198.5,726.3414 198.5,747.4314 " fill="none" id="Updated-to-End" style="stroke:#000000;stroke-width:1.0;"/><polygon fill="#000000" points="198.5,752.5914,202.5,743.5914,198.5,747.5914,194.5,743.5914,198.5,752.5914" style="stroke:#000000;stroke-width:1.0;"/><text fill="#000000" font-family="Consolas" font-size="12" lengthAdjust="spacing" textLength="35" x="199.5" y="719.7197">clean</text></g></svg>