<?xml version="1.0" encoding="UTF-8" standalone="no"?><svg xmlns="http://www.w3.org/2000/svg" xmlns:xlink="http://www.w3.org/1999/xlink" contentScriptType="application/ecmascript" contentStyleType="text/css" height="798px" preserveAspectRatio="none" style="width:305px;height:798px;background:#FFFFFF;" version="1.1" viewBox="0 0 305 798" width="305px" zoomAndPan="magnify"><defs/><g><text fill="#000000" font-family="Lato" font-size="16" lengthAdjust="spacing" textLength="191" x="53.5" y="15.7833">FWU Firmware Store states</text><text fill="#000000" font-family="Lato" font-size="16" lengthAdjust="spacing" textLength="0" x="150.5" y="34.9728"/><text fill="#000000" font-family="Lato" font-size="16" font-style="italic" lengthAdjust="spacing" textLength="130" x="84" y="54.1622">Reboot required: yes</text><text fill="#000000" font-family="Lato" font-size="16" font-style="italic" lengthAdjust="spacing" textLength="130" x="84" y="73.3517">Testing required: yes</text><text fill="#000000" font-family="Lato" font-size="16" lengthAdjust="spacing" textLength="0" x="150.5" y="92.5411"/><rect fill="#DDDDDD" height="38.7842" rx="5" ry="5" style="stroke:#000000;stroke-width:1.0;" width="281" x="8" y="103.9473"/><text fill="#000000" font-family="Consolas" font-size="12" lengthAdjust="spacing" textLength="7" x="14" y="121.2769">*</text><text fill="#000000" font-family="Lato" font-size="12" lengthAdjust="spacing" textLength="207" x="37" y="120.7848">Transient states that always transition at</text><text fill="#000000" font-family="Lato" font-size="12" font-weight="bold" lengthAdjust="spacing" textLength="37" x="246" y="120.7848">reboot</text><text fill="#000000" font-family="Consolas" font-size="12" lengthAdjust="spacing" textLength="21" x="14" y="135.6689">---</text><text fill="#000000" font-family="Lato" font-size="12" lengthAdjust="spacing" textLength="195" x="37" y="135.1768">dashed lines indicate a transition over</text><text fill="#000000" font-family="Lato" font-size="12" font-weight="bold" lengthAdjust="spacing" textLength="37" x="234" y="135.1768">reboot</text><rect fill="#FFFFFF" height="40" rx="12.5" ry="12.5" style="stroke:#000000;stroke-width:1.5;" width="50" x="126.75" y="158.7314"/><text fill="#000000" font-family="Lato" font-size="12" lengthAdjust="spacing" textLength="40" x="131.75" y="183.3729">READY</text><rect fill="#FFFFFF" height="40" rx="12.5" ry="12.5" style="stroke:#000000;stroke-width:1.5;" width="63" x="36.25" y="274.7314"/><text fill="#000000" font-family="Lato" font-size="12" lengthAdjust="spacing" textLength="53" x="41.25" y="299.3729">WRITING</text><rect fill="#FFFFFF" height="40" rx="12.5" ry="12.5" style="stroke:#000000;stroke-width:1.5;" width="63" x="36.25" y="390.7314"/><text fill="#000000" font-family="Lato" font-size="12" lengthAdjust="spacing" textLength="53" x="41.25" y="415.3729">STAGED *</text><rect fill="#FFFFFF" height="40" rx="12.5" ry="12.5" style="stroke:#000000;stroke-width:1.5;" width="51" x="202.25" y="390.7314"/><text fill="#000000" font-family="Lato" font-size="12" lengthAdjust="spacing" textLength="41" x="207.25" y="415.3729">FAILED</text><rect fill="#FFFFFF" height="40" rx="12.5" ry="12.5" style="stroke:#000000;stroke-width:1.5;" width="75" x="191.25" y="520.7314"/><text fill="#000000" font-family="Lato" font-size="12" lengthAdjust="spacing" textLength="65" x="196.25" y="545.3729">REJECTED *</text><rect fill="#FFFFFF" height="40" rx="12.5" ry="12.5" style="stroke:#000000;stroke-width:1.5;" width="50" x="48.75" y="520.7314"/><text fill="#000000" font-family="Lato" font-size="12" lengthAdjust="spacing" textLength="40" x="53.75" y="545.3729">TRIAL *</text><rect fill="#FFFFFF" height="40" rx="12.5" ry="12.5" style="stroke:#000000;stroke-width:1.5;" width="66" x="40.75" y="636.7314"/><text fill="#000000" font-family="Lato" font-size="12" lengthAdjust="spacing" textLength="56" x="45.75" y="661.3729">UPDATED</text><rect fill="#FFFFFF" height="40" rx="12.5" ry="12.5" style="stroke:#000000;stroke-width:1.5;" width="50" x="48.75" y="752.7314"/><text fill="#000000" font-family="Lato" font-size="12" lengthAdjust="spacing" textLength="40" x="53.75" y="777.3729">READY</text><!--MD5=[c97380125423de60894e9813730c5eee]
link Start to Staging--><path d="M137.69,198.8114 C123.15,218.5414 100.44,249.3614 84.87,270.4914 " fill="none" id="Start-to-Staging" style="stroke:#000000;stroke-width:1.0;"/><polygon fill="#000000" points="81.86,274.5914,90.4214,269.7229,84.8279,270.5676,83.9832,264.9742,81.86,274.5914" style="stroke:#000000;stroke-width:1.0;"/><text fill="#000000" font-family="Consolas" font-size="12" lengthAdjust="spacing" textLength="35" x="116.75" y="241.7197">start</text><!--MD5=[0b0aafcdfecf859159d0f59d797aa148]
link Staging to Staging--><path d="M99.57,284.4114 C117.58,282.4014 134.25,285.8414 134.25,294.7314 C134.25,302.7914 120.56,306.3714 104.58,305.4714 " fill="none" id="Staging-to-Staging" style="stroke:#000000;stroke-width:1.0;"/><polygon fill="#000000" points="99.57,305.0514,108.1944,309.8075,104.5516,305.4797,108.8795,301.8369,99.57,305.0514" style="stroke:#000000;stroke-width:1.0;"/><text fill="#000000" font-family="Consolas" font-size="12" lengthAdjust="spacing" textLength="35" x="140.25" y="299.7197">write</text><!--MD5=[0ad80e3ad2c5803190fd2274f9e1b6de]
link Staging to Staged--><path d="M67.75,314.8114 C67.75,334.2114 67.75,364.3414 67.75,385.4314 " fill="none" id="Staging-to-Staged" style="stroke:#000000;stroke-width:1.0;"/><polygon fill="#000000" points="67.75,390.5914,71.75,381.5914,67.75,385.5914,63.75,381.5914,67.75,390.5914" style="stroke:#000000;stroke-width:1.0;"/><text fill="#000000" font-family="Consolas" font-size="12" lengthAdjust="spacing" textLength="49" x="68.75" y="357.7197">install</text><!--MD5=[5385c45c5e18a6878cdeccd1eaad970d]
link Staging to Failed--><path d="M94.53,314.8114 C123.1,335.1714 168.26,367.3414 197.94,388.4914 " fill="none" id="Staging-to-Failed" style="stroke:#000000;stroke-width:1.0;"/><polygon fill="#000000" points="202.21,391.5314,197.2001,383.052,198.1375,388.6307,192.5588,389.5681,202.21,391.5314" style="stroke:#000000;stroke-width:1.0;"/><text fill="#000000" font-family="Consolas" font-size="12" lengthAdjust="spacing" textLength="42" x="158.75" y="357.7197">reject</text><!--MD5=[d4d7d25629e036e3232ad0960ebf72b6]
link Staged to Trial--><path d="M55.29,430.9314 C50.35,439.6514 45.25,450.3314 42.75,460.7314 C39.63,473.6914 39.04,477.9214 42.75,490.7314 C45.35,499.7014 50.14,508.6114 55.19,516.3214 " fill="none" id="Staged-to-Trial" style="stroke:#000000;stroke-width:1.0;stroke-dasharray:7.0,7.0;"/><polygon fill="#000000" points="58.01,520.4714,56.2615,510.779,55.2004,516.3355,49.644,515.2744,58.01,520.4714" style="stroke:#000000;stroke-width:1.0;"/><text fill="#000000" font-family="Consolas" font-size="12" lengthAdjust="spacing" textLength="42" x="55.75" y="474.061">reboot</text><text fill="#000000" font-family="Lato" font-size="12" lengthAdjust="spacing" textLength="3" x="97.75" y="473.5689">:</text><text fill="#000000" font-family="Lato" font-size="12" font-style="italic" lengthAdjust="spacing" textLength="69" x="43.75" y="487.961">install success</text><!--MD5=[a18353b5da68884bd2580cea4c9de7ab]
link Staged to Failed--><path d="M99.36,410.7314 C127.65,410.7314 168.88,410.7314 196.93,410.7314 " fill="none" id="Staged-to-Failed" style="stroke:#000000;stroke-width:1.0;stroke-dasharray:7.0,7.0;"/><polygon fill="#000000" points="202.01,410.7314,193.01,406.7314,197.01,410.7314,193.01,414.7314,202.01,410.7314" style="stroke:#000000;stroke-width:1.0;"/><text fill="#000000" font-family="Consolas" font-size="12" lengthAdjust="spacing" textLength="42" x="128.25" y="391.061">reboot</text><text fill="#000000" font-family="Lato" font-size="12" lengthAdjust="spacing" textLength="3" x="170.25" y="390.5689">:</text><text fill="#000000" font-family="Lato" font-size="12" font-style="italic" lengthAdjust="spacing" textLength="60" x="120.75" y="404.961">install failed</text><!--MD5=[a18353b5da68884bd2580cea4c9de7ab]
link Staged to Failed--><path d="M99.3,422.5414 C108.64,425.5014 118.99,428.2514 128.75,429.7314 C148.08,432.6714 153.46,432.9714 172.75,429.7314 C180.92,428.3614 189.5,425.9214 197.38,423.2314 " fill="none" id="Staged-to-Failed-1" style="stroke:#000000;stroke-width:1.0;"/><polygon fill="#000000" points="202.19,421.5414,192.3728,420.7524,197.4729,423.1996,195.0258,428.2997,202.19,421.5414" style="stroke:#000000;stroke-width:1.0;"/><text fill="#000000" font-family="Consolas" font-size="12" lengthAdjust="spacing" textLength="42" x="129.75" y="426.7197">reject</text><!--MD5=[4d415c9b773123c37ce42f12237de1fc]
link Trial to Updated--><path d="M73.75,560.8114 C73.75,580.2114 73.75,610.3414 73.75,631.4314 " fill="none" id="Trial-to-Updated" style="stroke:#000000;stroke-width:1.0;"/><polygon fill="#000000" points="73.75,636.5914,77.75,627.5914,73.75,631.5914,69.75,627.5914,73.75,636.5914" style="stroke:#000000;stroke-width:1.0;"/><text fill="#000000" font-family="Consolas" font-size="12" lengthAdjust="spacing" textLength="42" x="74.75" y="603.7197">accept</text><!--MD5=[71ab68107f7e180decc84935bd3705da]
reverse link Start to Failed--><path d="M160.79,203.7914 C172.66,235.7714 193.87,294.1314 209.75,344.7314 C214.55,360.0414 219.37,377.5814 222.81,390.5714 " fill="none" id="Start-backto-Failed" style="stroke:#000000;stroke-width:1.0;"/><polygon fill="#000000" points="158.96,198.8914,158.3485,208.7213,160.7031,203.5778,165.8466,205.9324,158.96,198.8914" style="stroke:#000000;stroke-width:1.0;"/><text fill="#000000" font-family="Consolas" font-size="12" lengthAdjust="spacing" textLength="35" x="201.75" y="299.7197">clean</text><!--MD5=[e9634d198f8cfcd87bdca55f83f499e6]
link Trial to Rollback--><path d="M99,540.7314 C122.5,540.7314 158,540.7314 185.93,540.7314 " fill="none" id="Trial-to-Rollback" style="stroke:#000000;stroke-width:1.0;"/><polygon fill="#000000" points="191.05,540.7314,182.05,536.7314,186.05,540.7314,182.05,544.7314,191.05,540.7314" style="stroke:#000000;stroke-width:1.0;"/><text fill="#000000" font-family="Consolas" font-size="12" lengthAdjust="spacing" textLength="42" x="124" y="534.7197">reject</text><!--MD5=[36f27b81716cb48e7733fa804b8af182]
reverse link Failed to Rollback--><path d="M227.94,435.9214 C228.13,460.4214 228.42,497.8514 228.6,520.4414 " fill="none" id="Failed-backto-Rollback" style="stroke:#000000;stroke-width:1.0;stroke-dasharray:7.0,7.0;"/><polygon fill="#000000" points="227.9,430.8914,223.9773,439.9254,227.9429,435.8913,231.977,439.8568,227.9,430.8914" style="stroke:#000000;stroke-width:1.0;"/><text fill="#000000" font-family="Consolas" font-size="12" lengthAdjust="spacing" textLength="42" x="228.75" y="474.061">reboot</text><text fill="#000000" font-family="Lato" font-size="12" lengthAdjust="spacing" textLength="3" x="270.75" y="473.5689">:</text><text fill="#000000" font-family="Lato" font-size="12" font-style="italic" lengthAdjust="spacing" textLength="39" x="231.75" y="487.961">rollback</text><!--MD5=[91632b8e9666b14c55229d961249920f]
link Trial to Failed--><path d="M96.71,520.6514 C124.53,497.5214 171.34,458.6214 200.83,434.1014 " fill="none" id="Trial-to-Failed" style="stroke:#000000;stroke-width:1.0;stroke-dasharray:7.0,7.0;"/><polygon fill="#000000" points="204.69,430.8914,195.2143,433.5768,200.8477,434.091,200.3335,439.7244,204.69,430.8914" style="stroke:#000000;stroke-width:1.0;"/><text fill="#000000" font-family="Consolas" font-size="12" lengthAdjust="spacing" textLength="42" x="165.75" y="474.061">reboot</text><text fill="#000000" font-family="Lato" font-size="12" lengthAdjust="spacing" textLength="3" x="207.75" y="473.5689">:</text><text fill="#000000" font-family="Lato" font-size="12" font-style="italic" lengthAdjust="spacing" textLength="39" x="168.75" y="487.961">rollback</text><!--MD5=[43a8c4662c8a2715cf5aeba88f635b26]
link Updated to End--><path d="M73.75,676.8114 C73.75,696.2114 73.75,726.3414 73.75,747.4314 " fill="none" id="Updated-to-End" style="stroke:#000000;stroke-width:1.0;"/><polygon fill="#000000" points="73.75,752.5914,77.75,743.5914,73.75,747.5914,69.75,743.5914,73.75,752.5914" style="stroke:#000000;stroke-width:1.0;"/><text fill="#000000" font-family="Consolas" font-size="12" lengthAdjust="spacing" textLength="35" x="74.75" y="719.7197">clean</text></g></svg>