<?xml version="1.0" encoding="UTF-8" standalone="no"?><svg xmlns="http://www.w3.org/2000/svg" xmlns:xlink="http://www.w3.org/1999/xlink" contentScriptType="application/ecmascript" contentStyleType="text/css" height="626px" preserveAspectRatio="none" style="width:282px;height:626px;background:#FFFFFF;" version="1.1" viewBox="0 0 282 626" width="282px" zoomAndPan="magnify"><defs/><g><text fill="#000000" font-family="Lato" font-size="16" lengthAdjust="spacing" textLength="191" x="39" y="15.7833">FWU Firmware Store states</text><text fill="#000000" font-family="Lato" font-size="16" lengthAdjust="spacing" textLength="0" x="136" y="34.9728"/><text fill="#000000" font-family="Lato" font-size="16" font-style="italic" lengthAdjust="spacing" textLength="125" x="72" y="54.1622">Reboot required: no</text><text fill="#000000" font-family="Lato" font-size="16" font-style="italic" lengthAdjust="spacing" textLength="130" x="69.5" y="73.3517">Testing required: yes</text><text fill="#000000" font-family="Lato" font-size="16" lengthAdjust="spacing" textLength="0" x="136" y="92.5411"/><rect fill="#FFFFFF" height="40" rx="12.5" ry="12.5" style="stroke:#000000;stroke-width:1.5;" width="50" x="136.5" y="102.9473"/><text fill="#000000" font-family="Lato" font-size="12" lengthAdjust="spacing" textLength="40" x="141.5" y="127.5887">READY</text><rect fill="#FFFFFF" height="40" rx="12.5" ry="12.5" style="stroke:#000000;stroke-width:1.5;" width="63" x="130" y="218.9473"/><text fill="#000000" font-family="Lato" font-size="12" lengthAdjust="spacing" textLength="53" x="135" y="243.5887">WRITING</text><rect fill="#FFFFFF" height="40" rx="12.5" ry="12.5" style="stroke:#000000;stroke-width:1.5;" width="51" x="7" y="348.9473"/><text fill="#000000" font-family="Lato" font-size="12" lengthAdjust="spacing" textLength="41" x="12" y="373.5887">FAILED</text><rect fill="#FFFFFF" height="40" rx="12.5" ry="12.5" style="stroke:#000000;stroke-width:1.5;" width="50" x="136.5" y="348.9473"/><text fill="#000000" font-family="Lato" font-size="12" lengthAdjust="spacing" textLength="33" x="145" y="373.5887">TRIAL</text><rect fill="#FFFFFF" height="40" rx="12.5" ry="12.5" style="stroke:#000000;stroke-width:1.5;" width="66" x="128.5" y="464.9473"/><text fill="#000000" font-family="Lato" font-size="12" lengthAdjust="spacing" textLength="56" x="133.5" y="489.5887">UPDATED</text><rect fill="#FFFFFF" height="40" rx="12.5" ry="12.5" style="stroke:#000000;stroke-width:1.5;" width="50" x="136.5" y="580.9473"/><text fill="#000000" font-family="Lato" font-size="12" lengthAdjust="spacing" textLength="40" x="141.5" y="605.5887">READY</text><!--MD5=[c97380125423de60894e9813730c5eee]
link Start to Staging--><path d="M160.06,143.0173 C159.45,152.0773 158.8,163.0673 158.5,172.9473 C158.09,186.4873 158.72,201.5973 159.51,213.8373 " fill="none" id="Start-to-Staging" style="stroke:#000000;stroke-width:1.0;"/><polygon fill="#000000" points="159.85,218.8973,163.2249,209.6447,159.5079,213.909,155.2437,210.192,159.85,218.8973" style="stroke:#000000;stroke-width:1.0;"/><text fill="#000000" font-family="Consolas" font-size="12" lengthAdjust="spacing" textLength="35" x="159.5" y="185.9355">start</text><!--MD5=[1ea6b70241ffbacf9da923b492f023ae]
link Staging to Start--><path d="M183.29,218.7373 C194.65,206.2973 205.13,189.3973 199.5,172.9473 C196.32,163.6673 190.59,154.7873 184.53,147.1973 " fill="none" id="Staging-to-Start" style="stroke:#000000;stroke-width:1.0;"/><polygon fill="#000000" points="181.14,143.1173,183.8253,152.593,184.3395,146.9595,189.973,147.4738,181.14,143.1173" style="stroke:#000000;stroke-width:1.0;"/><text fill="#000000" font-family="Consolas" font-size="12" lengthAdjust="spacing" textLength="35" x="201.5" y="185.9355">clean</text><!--MD5=[0b0aafcdfecf859159d0f59d797aa148]
link Staging to Staging--><path d="M193.32,228.6273 C211.33,226.6173 228,230.0573 228,238.9473 C228,247.0073 214.31,250.5873 198.33,249.6873 " fill="none" id="Staging-to-Staging" style="stroke:#000000;stroke-width:1.0;"/><polygon fill="#000000" points="193.32,249.2673,201.9444,254.0234,198.3016,249.6955,202.6295,246.0528,193.32,249.2673" style="stroke:#000000;stroke-width:1.0;"/><text fill="#000000" font-family="Consolas" font-size="12" lengthAdjust="spacing" textLength="35" x="234" y="243.9355">write</text><!--MD5=[e3675cb05a0991263af73effc6830589]
link Staging to Trial--><path d="M161.5,259.1073 C161.5,281.6373 161.5,319.0573 161.5,343.6173 " fill="none" id="Staging-to-Trial" style="stroke:#000000;stroke-width:1.0;"/><polygon fill="#000000" points="161.5,348.6573,165.5,339.6573,161.5,343.6573,157.5,339.6573,161.5,348.6573" style="stroke:#000000;stroke-width:1.0;"/><text fill="#000000" font-family="Consolas" font-size="12" lengthAdjust="spacing" textLength="49" x="192" y="301.9355">install</text><text fill="#000000" font-family="Lato" font-size="12" font-style="italic" lengthAdjust="spacing" textLength="108" x="162.5" y="315.8355">installation succeeded</text><!--MD5=[4d415c9b773123c37ce42f12237de1fc]
link Trial to Updated--><path d="M161.5,389.0273 C161.5,408.4273 161.5,438.5573 161.5,459.6473 " fill="none" id="Trial-to-Updated" style="stroke:#000000;stroke-width:1.0;"/><polygon fill="#000000" points="161.5,464.8073,165.5,455.8073,161.5,459.8073,157.5,455.8073,161.5,464.8073" style="stroke:#000000;stroke-width:1.0;"/><text fill="#000000" font-family="Consolas" font-size="12" lengthAdjust="spacing" textLength="42" x="162.5" y="431.9355">accept</text><!--MD5=[ffc350981f942d9bd7c1701f06726d72]
link Failed to Start--><path d="M35.22,348.5273 C39.98,319.0073 51.65,261.7573 75.5,218.9473 C91.03,191.0673 116.16,164.6073 135.25,146.7273 " fill="none" id="Failed-to-Start" style="stroke:#000000;stroke-width:1.0;"/><polygon fill="#000000" points="138.98,143.2673,129.665,146.4657,135.3181,146.6717,135.1121,152.3248,138.98,143.2673" style="stroke:#000000;stroke-width:1.0;"/><text fill="#000000" font-family="Consolas" font-size="12" lengthAdjust="spacing" textLength="35" x="76.5" y="243.9355">clean</text><!--MD5=[2342b74c4d04e9b5c4d79a33eddc597c]
reverse link Failed to Trial--><path d="M63.5,368.9473 C85.75,368.9473 115.36,368.9473 136.19,368.9473 " fill="none" id="Failed-backto-Trial" style="stroke:#000000;stroke-width:1.0;"/><polygon fill="#000000" points="58.3,368.9473,67.3114,372.9215,63.3,368.933,67.2885,364.9216,58.3,368.9473" style="stroke:#000000;stroke-width:1.0;"/><text fill="#000000" font-family="Consolas" font-size="12" lengthAdjust="spacing" textLength="42" x="76.25" y="362.9355">reject</text><!--MD5=[43a8c4662c8a2715cf5aeba88f635b26]
link Updated to End--><path d="M161.5,505.0273 C161.5,524.4273 161.5,554.5573 161.5,575.6473 " fill="none" id="Updated-to-End" style="stroke:#000000;stroke-width:1.0;"/><polygon fill="#000000" points="161.5,580.8073,165.5,571.8073,161.5,575.8073,157.5,571.8073,161.5,580.8073" style="stroke:#000000;stroke-width:1.0;"/><text fill="#000000" font-family="Consolas" font-size="12" lengthAdjust="spacing" textLength="35" x="162.5" y="547.9355">clean</text></g></svg>