<svg width="1280" height="720" xmlns="http://www.w3.org/2000/svg" xmlns:xlink="http://www.w3.org/1999/xlink" overflow="hidden"><defs><clipPath id="clip0"><rect x="0" y="0" width="1280" height="720"/></clipPath></defs><g clip-path="url(#clip0)"><rect x="0" y="0" width="1280" height="720" fill="#FFFFFF"/><path d="M63.5001 316.5C63.5001 289.99 107.152 268.5 161 268.5 214.848 268.5 258.5 289.99 258.5 316.5 258.5 343.01 214.848 364.5 161 364.5 107.152 364.5 63.5001 343.01 63.5001 316.5Z" stroke="#000000" stroke-width="1.33333" stroke-miterlimit="8" fill="#FFFFFF" fill-rule="evenodd"/><text font-family="Calibri,Calibri_MSFontService,sans-serif" font-weight="400" font-size="24" transform="translate(104.144 312)">CANDIDATE<tspan font-size="19" x="8.62" y="24">(initial state)</tspan></text><path d="M669.5 316.5C669.5 289.99 713.152 268.5 767 268.5 820.848 268.5 864.5 289.99 864.5 316.5 864.5 343.01 820.848 364.5 767 364.5 713.152 364.5 669.5 343.01 669.5 316.5Z" stroke="#000000" stroke-width="1.33333" stroke-miterlimit="8" fill="#FFFFFF" fill-rule="evenodd"/><text font-family="Calibri,Calibri_MSFontService,sans-serif" font-weight="400" font-size="24" transform="translate(715.009 313)">INSTALLED<tspan font-size="19" x="8.30005" y="24">(final state)</tspan></text><path d="M1052.5 317.5C1052.5 290.99 1096.15 269.5 1150 269.5 1203.85 269.5 1247.5 290.99 1247.5 317.5 1247.5 344.01 1203.85 365.5 1150 365.5 1096.15 365.5 1052.5 344.01 1052.5 317.5Z" stroke="#000000" stroke-width="1.33333" stroke-miterlimit="8" fill="#FFFFFF" fill-rule="evenodd"/><text font-family="Calibri,Calibri_MSFontService,sans-serif" font-weight="400" font-size="24" transform="translate(1102.21 325)">REJECTED</text><path d="M161.645 364.5 161.645 438.503 160.5 438.503 161.167 437.836 161.167 499.172 159.833 499.172 159.833 437.169 160.978 437.169 160.311 437.836 160.311 364.5ZM167.167 497.839 160.5 511.172 153.833 497.839Z" fill="#4472C4"/><path d="M0-0.666667 285.045-0.666667 285.045 181.497 283.711 181.497 283.711 0 284.378 0.666667 0 0.666667ZM291.045 180.164 284.378 193.497 277.711 180.164Z" fill="#4472C4" transform="matrix(1 0 0 -1 865.5 558.997)"/><path d="M229.833 282.384 229.833 207.502 1151.16 207.502 1151.16 257.5 1149.82 257.5 1149.82 208.169 1150.49 208.836 230.5 208.836 231.167 208.169 231.167 282.384ZM1157.16 256.167 1150.49 269.5 1143.82 256.167Z" fill="#4472C4"/><path d="M864.5 315.833 959.047 315.833 959.047 317.008 958.38 316.342 1040.26 316.342 1040.26 317.675 957.714 317.675 957.714 316.5 958.38 317.167 864.5 317.167ZM1038.93 310.342 1052.26 317.008 1038.93 323.675Z" fill="#4472C4"/><path d="M258.5 315.833 464.375 315.833 464.375 317.167 463.708 316.5 656.916 316.5 656.916 317.833 463.041 317.833 463.041 316.5 463.708 317.167 258.5 317.167ZM655.582 310.5 668.916 317.167 655.582 323.833Z" fill="#4472C4"/><path d="M1248.05 317.009 1258.34 317.009 1257.67 317.675 1257.67 58.7339 1258.34 59.4005 39.5011 59.4005 40.1677 58.7339 40.1677 316.5 39.5011 315.833 51.5001 315.833 51.5001 317.167 38.8344 317.167 38.8344 58.0672 1259 58.0672 1259 318.342 1248.05 318.342ZM50.1667 309.833 63.5001 316.5 50.1667 323.167Z" fill="#4472C4"/><text fill="#BF9000" font-family="Calibri,Calibri_MSFontService,sans-serif" font-weight="400" font-size="24" transform="translate(370.876 346)">psa_fwu_install()<tspan fill="#000000" font-size="24" x="0" y="26">returns</tspan><tspan font-size="24" x="76.3933" y="26">PSA_SUCCESS</tspan><tspan fill="#000000" font-size="24" x="0" y="51">(for firmware that does not</tspan><tspan fill="#000000" font-size="24" x="0" y="77">need a restart)</tspan><tspan font-size="24" x="-327.862" y="68">psa_fwu_install() </tspan><tspan fill="#000000" font-size="24" x="-155.635" y="68">returns</tspan><tspan font-size="24" x="-327.862" y="94">PSA_SUCCESS_REBOOT</tspan><tspan fill="#C00000" font-size="28" x="175.494" y="-162">psa_fwu_install() fails</tspan><tspan fill="#C00000" font-style="italic" font-size="28" x="172.99" y="353">Boot or install failure</tspan><tspan font-size="28" x="423.802" y="98">psa_fwu_accept()</tspan><tspan font-size="28" x="195.83" y="-312">psa_fwu_abort()</tspan><tspan fill="#C00000" font-style="italic" font-size="28" x="537.961" y="-110">Corrupted </tspan><tspan fill="#C00000" font-style="italic" font-size="28" x="518.087" y="-76">image or boot</tspan><tspan fill="#C00000" font-style="italic" font-size="28" x="561.507" y="-43">failure</tspan></text><path d="M90.8335 282.545 91.0213 273.718 91.5862 264.931 93.8417 247.952 95.4103 239.795 97.2297 232.016 99.3634 224.61 101.686 217.705 104.202 211.353 106.971 205.627 109.81 200.516 112.852 196.206 115.979 192.696 119.269 190.116 122.605 188.481 126.05 187.885 129.492 188.348 132.82 189.783 136.106 191.975 139.239 194.979 142.284 198.659 145.194 202.961 147.907 207.882 150.424 213.292 152.813 219.141 154.89 225.435 158.342 238.989 160.539 253.488 160.724 256.471 159.393 256.554 159.21 253.6 159.216 253.659 157.028 239.221 157.041 239.286 153.604 225.786 153.617 225.83 151.554 219.58 151.57 219.624 149.195 213.811 149.208 213.84 146.708 208.465 146.729 208.506 144.041 203.631 144.073 203.683 141.198 199.433 141.236 199.484 138.236 195.859 138.289 195.915 135.226 192.978 135.318 193.051 132.13 190.926 132.236 190.984 129.048 189.609 129.224 189.657 125.974 189.22 126.176 189.216 122.926 189.778 123.106 189.72 119.918 191.283 120.036 191.209 116.849 193.709 116.935 193.627 113.873 197.065 113.92 197.006 110.92 201.256 110.958 201.195 108.145 206.258 108.163 206.224 105.413 211.912 105.432 211.867 102.932 218.179 102.944 218.147 100.632 225.022 100.641 224.994 98.5156 232.369 98.5241 232.336 96.7116 240.086 96.7172 240.06 95.1547 248.185 95.1609 248.147 92.9109 265.084 92.9153 265.039 92.3528 273.789 92.354 273.761 92.1665 282.573ZM166.657 254.877 160.605 268.5 153.338 255.484Z" fill="#4472C4"/><text fill="#BF9000" font-family="Calibri,Calibri_MSFontService,sans-serif" font-weight="400" font-size="24" transform="translate(49.225 118)">psa_fwu_set_manifest()<tspan font-size="24" x="75.1" y="29">psa_fwu_write()</tspan><tspan font-size="24" x="72.6733" y="58">psa_fwu_abort()</tspan></text><path d="M62.5001 558.5C62.5001 531.99 106.376 510.5 160.5 510.5 214.624 510.5 258.5 531.99 258.5 558.5 258.5 585.01 214.624 606.5 160.5 606.5 106.376 606.5 62.5001 585.01 62.5001 558.5Z" stroke="#000000" stroke-width="1.33333" stroke-miterlimit="8" fill="#FFFFFF" fill-rule="evenodd"/><text font-family="Calibri,Calibri_MSFontService,sans-serif" font-weight="400" font-size="24" transform="translate(119.876 552)">REBOOT<tspan font-size="24" x="0.0933304" y="29">NEEDED</tspan></text><path d="M0-0.666667 206.669-0.666667 206.669 0.000104987 206.003-0.666562 400.006-0.666562 400.006 0.666772 205.336 0.666772 205.336 0 206.003 0.666667 0 0.666667ZM398.672-6.66656 412.006 0.000104987 398.672 6.66677Z" fill="#4472C4" transform="matrix(1 0 0 -1 258.5 558.5)"/><text fill="#BF9000" font-family="Calibri,Calibri_MSFontService,sans-serif" font-weight="400" font-size="24" transform="translate(329.969 579)">psa_fwu_request_reboot<tspan font-size="24" x="247.06" y="0">()</tspan><tspan fill="#000000" font-size="24" x="0" y="26">and installation succeeds</tspan></text><path d="M766.946 510.51 765.925 376.505 767.258 376.495 768.279 510.5ZM759.935 377.884 766.5 364.5 773.268 377.782Z" fill="#4472C4"/><text fill="#BF9000" font-family="Calibri,Calibri_MSFontService,sans-serif" font-weight="400" font-size="24" transform="translate(893.427 594)">psa_fwu_request_rollback()<tspan fill="#000000" font-size="24" x="0" y="29">returns </tspan><tspan font-size="24" x="76.3933" y="29">PSA_SUCCESS</tspan></text><path d="M670.5 558.5C670.5 531.99 714.152 510.5 768 510.5 821.848 510.5 865.5 531.99 865.5 558.5 865.5 585.01 821.848 606.5 768 606.5 714.152 606.5 670.5 585.01 670.5 558.5Z" stroke="#000000" stroke-width="1.33333" stroke-miterlimit="8" fill="#FFFFFF" fill-rule="evenodd"/><text font-family="Calibri,Calibri_MSFontService,sans-serif" font-weight="400" font-size="24" transform="translate(722.018 540)">PENDING <tspan font-size="24" x="7.35333" y="29">INSTALL</tspan><tspan font-size="19" x="8.20667" y="53">(optional)</tspan></text><path d="M161.167 607.056 161.167 660.979 160.5 660.312 1219.18 660.312 1218.51 660.979 1218.51 363.5 1219.84 363.5 1219.84 661.645 159.833 661.645 159.833 607.056ZM1212.51 364.833 1219.18 351.5 1225.84 364.833Z" fill="#4472C4"/></g></svg>